<svg width="1374" height="949" viewBox="0 0 1374 949" fill="none" xmlns="http://www.w3.org/2000/svg">
<path d="M663 520H146V945H663V520Z" fill="#DEE6E9"/>
<path d="M665.5 947.5H143.5V517.5H665.5V947.5ZM148.5 942.5H660.5V522.5H148.5V942.5Z" fill="#25383F"/>
<path d="M1191 600H846V945H1191V600Z" fill="#DEE6E9"/>
<path d="M1193.5 947.5H843.5V597.5H1193.5V947.5ZM848.5 942.5H1188.5V602.5H848.5V942.5Z" fill="#25383F"/>
<path d="M621.9 946H238.1C241.8 843.2 326.3 761 430 761C533.7 761 618.2 843.2 621.9 946Z" fill="#FF6F00"/>
<path d="M602.1 283L581.6 336.3H423.1L443.5 283H437.1L182.3 947H188.7L210.8 889.5H369.4L347.3 947H353.7L608.5 283H602.1ZM371.7 883.5H213.1L246.3 797H404.9L371.7 883.5ZM407.2 791H248.6L281.2 706H439.8L407.2 791ZM442.1 700H283.5L315.9 615.5H474.5L442.1 700ZM476.8 609.5H318.3L350.7 525H509.3L476.8 609.5ZM511.5 519H353L385.6 434H544.2L511.5 519ZM546.5 428H387.9L420.8 342.3H579.4L546.5 428Z" fill="#25383F"/>
<path d="M1161.4 258C1216.96 258 1262 212.96 1262 157.4C1262 101.84 1216.96 56.8 1161.4 56.8C1105.84 56.8 1060.8 101.84 1060.8 157.4C1060.8 212.96 1105.84 258 1161.4 258Z" fill="#FF6F00"/>
<path d="M892 202H1229.1C1229.1 202 1196 134.8 1103 157.5C1102.9 157.5 970.6 29.3 892 202Z" fill="#DEE6E9"/>
<path d="M1233.1 204.5H888.1L889.7 201C913.6 148.4 945 118.1 982.9 110.9C1015.6 104.7 1046.9 117.3 1067.5 128.9C1086.6 139.7 1099.9 151.4 1103.6 154.8C1151.8 143.4 1183.9 156.3 1202.3 169.2C1222.5 183.4 1230.9 200.2 1231.3 200.9L1233.1 204.5ZM895.9 199.5H1224.7C1221.2 193.9 1213 182.8 1199.2 173.1C1173.8 155.4 1140.7 150.8 1103.5 159.9L1102.2 160.2L1101.2 159.2C1100.6 158.7 1043.7 104.3 983.9 115.7C948.5 122.5 918.9 150.7 895.9 199.5Z" fill="#25383F"/>
<path d="M334.5 54.0001H525C525 54.0001 506.3 16 453.7 28.9C453.7 28.9 378.9 -43.5999 334.5 54.0001Z" fill="#DEE6E9"/>
<path d="M529 56.5H330.6L332.2 53C345.9 22.9 363.9 5.60002 385.7 1.50002C418.4 -4.69998 448.5 20.8 454.4 26.2C481.7 19.9 500 27.3 510.5 34.6C522.1 42.8 527 52.5 527.2 52.9L529 56.5ZM338.4 51.5H520.5C518.2 48.2 513.9 43 507.4 38.5C493.1 28.6 475.2 26.2 454.3 31.3L453 31.6L452 30.6C451.7 30.3 419.9 1.90735e-05 386.7 6.30002C367.4 10 351.2 25.2 338.4 51.5Z" fill="#25383F"/>
<path d="M383.8 275.7L402.6 233.2L420.9 197.4L457.7 212.5C457.7 212.5 460 275 427.9 258.7L419.6 283.1L383.8 275.7Z" fill="white"/>
<path d="M421.2 286L380.3 277.5L400.4 232.1L419.7 194.2L460.1 210.8L460.2 212.4C460.3 214 461.5 251.6 446 261.4C441.3 264.4 435.7 264.6 429.3 262L421.2 286ZM387.4 273.9L417.9 280.2L426.4 255.1L429 256.4C434.9 259.4 439.5 259.6 443.3 257.2C453.6 250.6 455.4 225.3 455.2 214.1L422.1 200.5L404.9 234.2L387.4 273.9Z" fill="#25383F"/>
<path d="M473.1 216.1C475.5 208.6 464.8 204.5 464.8 204.5C468.7 204.7 470.4 203 470.8 201.4C472.8 192 452.6 192.6 452.6 192.6C457.4 190.1 452.2 187.5 452.2 187.5C445.7 184.8 432.4 186 423.1 187.3C420.3 186.6 384.4 178.3 398.1 238.4C398.1 238.4 415.8 249 422.7 230.2C422.7 230.2 420 219 429.1 219.9C430.8 220.1 432.3 221.3 432.8 222.9C433.5 225.1 433.8 227 433.8 228.1C433.8 229 434.5 229.8 435.3 230.1C436.5 230.5 437.7 229.8 438.1 228.7L440.5 221.2C456.1 225.2 471.5 221.4 473.1 216.1Z" fill="#25383F"/>
<path d="M421.7 671.3C412.6 675.1 372 690.5 352.5 667.5L374.5 647.5L417.5 651.5L422.9 668.6C423.2 669.7 422.7 670.9 421.7 671.3Z" fill="#25383F"/>
<path d="M207 813C207 813 242 849 270 822L269 803L211 800.2L207 813Z" fill="#25383F"/>
<path d="M225.5 791.5L201.5 838.5L227.5 884.5H264.5C264.5 884.5 259.5 873.5 248.5 866.5L245.5 817.5L253.5 797.5L225.5 791.5Z" fill="white"/>
<path d="M268.4 887H226L198.6 838.6L224.1 788.7L256.9 795.7L248 817.9L250.9 865.1C261.6 872.4 266.5 883 266.8 883.5L268.4 887ZM229 882H260.3C258 878.4 253.7 872.7 247.2 868.6L246.1 867.9L243 817.1L250.1 799.3L226.9 794.3L204.4 838.4L229 882Z" fill="#25383F"/>
<path d="M284.5 347.5C284.5 347.5 246.5 432.5 302 429C364 425.1 455.5 428.5 455.5 428.5C455.5 428.5 443.5 416.5 426.5 413.5C409.5 410.5 311.5 380.5 311.5 380.5L321.5 350.5L284.5 347.5Z" fill="white"/>
<path d="M298.8 431.6C287.9 431.6 279.9 428 274.9 420.9C259.3 398.4 281.3 348.6 282.2 346.5L282.9 344.9L324.8 348.3L314.6 378.9C329.9 383.6 411.7 408.4 426.9 411.1C444.5 414.2 456.7 426.3 457.2 426.8L461.7 431.3L455.3 431.1C454.4 431.1 363.2 427.7 302.1 431.6C301 431.6 299.9 431.6 298.8 431.6ZM286.1 350.1C282.5 358.8 266.5 399.9 279 418C283.4 424.3 291 427.1 301.8 426.4C353 423.2 425.1 425 448.2 425.7C443.3 422.2 435.4 417.6 426 415.9C409 412.9 314.7 384.1 310.7 382.8L308.2 382L318 352.6L286.1 350.1Z" fill="#25383F"/>
<path d="M377.5 648.5L358.5 702.5H440.5C440.5 702.5 441 689 416.5 684.5C407.4 682.8 402.5 668.5 406.5 652.8L377.5 648.5Z" fill="white"/>
<path d="M442.9 705H355L375.9 645.7L409.7 650.7L409 653.4C406.7 662.6 407.5 671.8 411.1 677.5C412.2 679.3 414.2 681.5 417 682C443.3 686.8 443.1 701.9 443 702.6L442.9 705ZM362 700H437.5C436.3 696.4 431.8 689.9 416 687C412.3 686.3 409.1 684 406.8 680.3C402.8 674.1 401.6 664.6 403.5 654.9L379.2 651.3L362 700Z" fill="#25383F"/>
<path d="M496.1 542.3L422.5 666.5C422.5 666.5 396.5 642.5 358.5 661.5L423.5 550.5L331.5 509.5V509.8L323.6 545.8L268.6 817.5C268.6 817.5 246.6 795.5 209.6 809.5L248.6 519.3C251.8 495 258.3 471.2 268.2 448.8C271.6 441.2 275.5 433.4 279.8 426.2C286.8 414.5 295.2 404.4 304.6 398.5L394.6 399.5L392.9 415.8L390.6 437.5L487.5 502.9C500.3 511.6 504.2 529 496.1 542.3Z" fill="#DEE6E9"/>
<path d="M270 822.6L266.7 819.3C265.8 818.5 245.3 798.6 210.4 811.9L206.5 813.4L246 518.9C249.4 493.8 256 469.8 265.8 447.7C269.6 439.2 273.5 431.5 277.5 424.9C285.6 411.5 294.3 401.9 303.1 396.4L303.7 396L397.2 397L393.1 436.2L488.8 500.8C502.9 510.3 507 529.1 498.2 543.6L423 670.4L420.7 668.3C419.7 667.4 395.4 645.7 359.5 663.7L352 667.5L419.8 551.6L333.3 513L326 546.3L270 822.6ZM233.7 802.3C250.1 802.3 261.5 808.9 266.8 812.9L321 545.3L329 509L329.6 505.9L427 549.3L364.5 656.1C393.4 645.1 414.8 657.7 421.7 662.8L494 541.1C501.4 528.9 497.9 513 486.1 505L387.9 438.7L391.8 401.9L305.3 400.9C297.3 406 289.4 414.9 281.9 427.4C278 433.9 274.1 441.4 270.4 449.7C260.8 471.4 254.3 494.9 251 519.5L212.6 805.7C220.3 803.3 227.4 802.3 233.7 802.3Z" fill="#25383F"/>
<path d="M493.5 326.5L538.5 364.5L623 410C623 410 647 429 648 441L596.5 419.5L518.5 388.5L467.5 352.5L493.5 326.5Z" fill="white"/>
<path d="M650.8 444.9L595.5 421.8L517.3 390.7L517.1 390.5L463.7 352.8L493.4 323.1L540 362.4L624.5 407.9L624.7 408C627.2 410 649.6 428 650.6 440.8L650.8 444.9ZM519.7 386.3L597.4 417.2L644.1 436.7C639.8 427.9 627.2 416.5 621.6 412.1L537.1 366.6L493.7 329.9L471.4 352.2L519.7 386.3Z" fill="#25383F"/>
<path d="M478 364L511 335C511 335 467.7 283.1 423 265L383.5 262C383.5 262 307 280 278 356L309 360L280 423C280 423 298.1 409.4 340 413C375 416 396 431 396 431C396 431 438 357 440 344L478 364Z" fill="#25383F"/>
<path d="M322.722 318.005L305.22 359.354L309.824 361.303L327.326 319.954L322.722 318.005Z" fill="white"/>
<path d="M331 512.3C317.7 506.6 309 497.8 305 486C296.5 460.7 313.1 431 313.8 429.8L318.1 432.3C317.9 432.6 301.9 461.3 309.7 484.5C313.2 494.9 321 502.7 332.9 507.8L331 512.3Z" fill="#25383F"/>
<path d="M1177.8 509.1L1180.3 471.1C1180.3 471.1 1147.9 472.1 1175.6 418.8L1219.7 436.1L1211.1 468.7L1213.7 509.4L1177.8 509.1Z" fill="white"/>
<path d="M1216.4 511.9L1175.2 511.6L1177.7 473.4C1174.3 472.9 1168.6 471.2 1165 465.5C1159 456 1161.9 439.9 1173.5 417.6L1174.5 415.6L1222.8 434.5L1213.7 468.8L1216.4 511.9ZM1180.5 506.6L1211 506.8L1208.6 468.3L1216.7 437.5L1176.8 421.9C1164.6 446.1 1165.8 457.5 1169.1 462.8C1172.8 468.7 1179.9 468.6 1180.2 468.6L1182.9 468.5L1182.7 471.2L1180.5 506.6Z" fill="#25383F"/>
<path d="M1197 441.4C1197 441.4 1201.9 433.3 1206.8 439.2C1208.9 441.7 1208.7 448.2 1200.2 450.4C1200.2 450.4 1197.9 465 1212.6 467.4C1212.6 467.4 1232.4 450 1227.4 428.4C1227.4 428.4 1252.5 436.5 1258.1 413.6C1259.8 406.7 1256.2 393.2 1241 391C1233.5 389.9 1219.4 392.7 1217.9 410.8C1217.9 410.8 1187.2 390.7 1170.6 422.9C1170.8 422.9 1181.2 439.8 1197 441.4Z" fill="#25383F"/>
<path d="M929 898C929 898 960 937 985 932L988 924L941 893L929 898Z" fill="#FF6F00"/>
<path d="M1128.5 644C1128.5 644 1211 698 1252 678L1242 650L1147 630L1128.5 644Z" fill="#FF6F00"/>
<path d="M1262 911C1262 911 1292 895 1291 848L1276 839L1250 897L1262 911Z" fill="#FF6F00"/>
<path d="M768.3 334.3C768.3 334.3 694.4 334.3 649.8 358.4L722.5 446.2C754.5 407 768.3 334.3 768.3 334.3Z" fill="#25383F"/>
<path d="M940.8 886.9C940.8 886.9 936.5 915.4 916.3 921.3C904.5 924.7 873.8 930.1 866.6 946L958.1 945.9L976.9 908L940.8 886.9Z" fill="white"/>
<path d="M862.8 948.5L864.4 945C871 930.4 895 924.3 909.3 920.7C911.8 920.1 913.9 919.5 915.7 919C934.1 913.6 938.4 886.9 938.4 886.6L939 883L980.4 907.1L959.9 948.4L862.8 948.5ZM942.6 890.8C940.7 899 934.3 918.7 917.1 923.7C915.3 924.2 913.1 924.8 910.6 925.4C898.5 928.5 879 933.4 871.2 943.4L956.7 943.3L973.8 908.9L942.6 890.8Z" fill="#25383F"/>
<path d="M1267 859L1308.6 875.7L1311 945.5H1268.2C1268.2 945.5 1274.5 933.6 1284.9 932C1284.9 932 1277.8 899.8 1257 888.1L1267 859Z" fill="white"/>
<path d="M1313.6 948H1264L1266 944.3C1266.3 943.8 1272 933.2 1281.8 930.1C1279.7 922.6 1272.1 899.4 1255.8 890.2L1254 889.2L1265.6 855.7L1311.2 874L1313.6 948ZM1272.9 943H1308.5L1306.3 877.4L1268.6 862.3L1260.1 887C1280.2 899.9 1287.1 930.2 1287.4 931.5L1288 934.1L1285.4 934.5C1279.7 935.3 1275.4 939.7 1272.9 943Z" fill="#25383F"/>
<path d="M1139 630L1135.2 787.2C1134.8 805 1142.9 821.9 1157.1 832.6L1261.5 911.5C1261.5 911.5 1262 889 1268 875C1274.2 860.5 1289.5 847.5 1289.5 847.5L1200.5 773.5L1227.3 646.5L1139 630Z" fill="#25383F"/>
<path d="M1133.5 638.5L1226 646C1226 646 1233 660 1111 771L985 932C985 932 975 913 960 906C947.4 900.1 929 898 929 898L1032.5 751.3C1036.2 746.1 1040.2 741.1 1044.5 736.3L1133.5 638.5Z" fill="#25383F"/>
<path d="M1099.6 490.4L1067.4 489.5L991.5 463.6L985.1 458.3C981.7 455.5 977.8 453.4 973.6 452.1L950.9 445.1L982.9 479.1L1057.1 517.8C1063.2 521 1069.9 523 1076.8 523.6L1102 525.9L1099.6 490.4Z" fill="white"/>
<path d="M1104.8 528.5L1076.7 525.9C1069.4 525.2 1062.5 523.2 1056 519.8L981.5 480.9L942.7 439.7L974.4 449.5C978.9 450.9 983.1 453.1 986.7 456.2L992.8 461.2L1067.9 486.9L1101.9 487.8L1104.8 528.5ZM984.5 477L1058.3 515.5C1064.2 518.6 1070.5 520.4 1077.1 521L1099.3 523L1097.2 492.8L1067 492L990.4 465.8L983.6 460.2C980.5 457.6 976.9 455.7 973 454.5L959.4 450.3L984.5 477Z" fill="#25383F"/>
<path d="M1139 539C1139 539 1138.4 571.7 1139 580C1141 609 1124.5 646.5 1124.5 646.5C1124.5 646.5 1158 645 1187 652C1219.6 659.9 1250 675 1250 675L1250.5 526.9C1250.5 516.6 1245.7 506.8 1237.4 500.6L1214.6 483.5C1214.6 483.5 1185.1 517 1176.6 485.5L1093.6 489.5L1096.1 537L1139 539Z" fill="#FDB092"/>
<path d="M1252.5 679L1248.9 677.2C1248.6 677 1218.4 662.1 1186.4 654.4C1158.1 647.6 1124.9 649 1124.6 649L1120.6 649.2L1122.2 645.5C1122.4 645.1 1138.4 608.2 1136.5 580.2C1136 573.1 1136.3 549.2 1136.5 541.4L1093.7 539.4L1090.9 487.1L1178.4 482.9L1178.9 484.8C1180.7 491.5 1183.6 495.3 1187.4 496.2C1195.9 498.2 1208.5 486.5 1212.6 481.8L1214.1 480.1L1238.8 498.6C1247.7 505.2 1252.9 515.8 1252.9 526.9L1252.5 679ZM1132.3 643.9C1144.1 643.9 1167.1 644.6 1187.6 649.6C1213.6 655.9 1238.5 666.9 1247.5 671.1L1247.9 527C1247.9 517.5 1243.4 508.4 1235.8 502.7L1214.7 486.9C1210.2 491.5 1197.1 503.7 1186.2 501.2C1180.9 500 1177 495.6 1174.6 488.1L1096.1 491.9L1098.3 534.6L1141.5 536.6V539C1141.5 539.3 1140.9 571.7 1141.5 579.8C1143.2 604.1 1132.4 633.7 1128.3 643.9C1129.4 643.9 1130.7 643.9 1132.3 643.9Z" fill="#25383F"/>
<path d="M1333.5 742.1C1332.3 693.2 1313.1 656.2 1276.5 632.1C1249.2 614.1 1222 610.5 1221.7 610.5H1221.6C1153.3 598.9 1089.1 569.9 1030.6 524.2C981.3 485.7 935.5 434.8 894.6 373.1C819.9 260.6 777.6 136.8 759 73C757.2 66.9 752 64.9 748.1 64.9C744.2 65 739 67.2 737.5 73.4L665.5 360.6L660.7 359.4L732.7 72.2C734.5 64.9 740.6 60.1 748.1 60C755.6 59.9 761.8 64.4 763.9 71.7C805.9 216 934.6 556.8 1222.5 605.6C1224.3 605.8 1251.4 609.6 1279.4 628C1305.6 645.2 1337.1 679 1338.7 742L1333.5 742.1Z" fill="#25383F"/>
<path d="M1193.5 580.5L1106.1 560.6L1061.5 545.5L1078.7 565.7C1082.8 570.5 1088.2 573.9 1094.3 575.7L1104.5 578.6L1203.9 618.2C1213.7 622.1 1224.7 616.4 1227.2 606.2L1237.5 563.7L1196.5 554.7L1193.5 580.5Z" fill="white"/>
<path d="M1210.3 621.8C1207.8 621.8 1205.3 621.3 1202.9 620.4L1103.6 580.9L1093.5 578.1C1086.9 576.3 1081.1 572.5 1076.7 567.4L1053.6 540.3L1106.7 558.3L1191.3 577.5L1194.3 551.5L1240.5 561.6L1229.6 606.6C1228.2 612.2 1224.5 616.9 1219.4 619.6C1216.6 621.1 1213.5 621.8 1210.3 621.8ZM1069.3 550.8L1080.6 564C1084.4 568.4 1089.3 571.6 1094.9 573.2L1105.4 576.2L1204.8 615.8C1208.8 617.4 1213.3 617.2 1217.1 615.2C1220.9 613.2 1223.7 609.7 1224.7 605.5L1234.4 565.4L1198.6 557.5L1195.6 583.5L1105.2 562.9L1069.3 550.8Z" fill="#25383F"/>
<path d="M748 92C756.284 92 763 85.2843 763 77C763 68.7157 756.284 62 748 62C739.716 62 733 68.7157 733 77C733 85.2843 739.716 92 748 92Z" fill="white"/>
<path d="M748 94.5C738.4 94.5 730.5 86.6 730.5 77C730.5 67.4 738.4 59.5 748 59.5C757.6 59.5 765.5 67.4 765.5 77C765.5 86.6 757.6 94.5 748 94.5ZM748 64.5C741.1 64.5 735.5 70.1 735.5 77C735.5 83.9 741.1 89.5 748 89.5C754.9 89.5 760.5 83.9 760.5 77C760.5 70.1 754.9 64.5 748 64.5Z" fill="#25383F"/>
<path d="M1139.44 512.846L1134.45 513.183L1136.29 540.42L1141.28 540.083L1139.44 512.846Z" fill="#25383F"/>
<path d="M1136.7 750.8L1133.3 747.1C1190.1 693.9 1215.9 664.6 1216.1 664.3L1219.9 667.6C1219.6 667.9 1193.8 697.4 1136.7 750.8Z" fill="white"/>
<path d="M1244 566.9L1227.3 563.8L1228.2 558.9L1240 561.1L1247.5 522.5L1252.5 523.5L1244 566.9Z" fill="#25383F"/>
<path d="M1195.53 531.714L1193.53 558.741L1198.52 559.11L1200.52 532.083L1195.53 531.714Z" fill="#25383F"/>
<path d="M585.7 777.7L528.2 826.3L512 945.5H528.2L631.6 901L585.7 777.7Z" fill="#25383F"/>
<path d="M743.3 777.7L800.8 826.3L817 945.5H800.8L697.4 901L743.3 777.7Z" fill="#25383F"/>
<path d="M723.1 445.7L606.8 445.5C606.8 445.5 510.9 665.2 619.3 904.4L710.6 904.6C819.1 665.4 723.1 445.7 723.1 445.7Z" fill="white"/>
<path d="M712.2 907L617.7 906.8L617 905.3C592.2 850.5 576 792.2 569.1 732C563.5 683.8 563.8 634.3 569.9 584.9C580.3 500.7 604.3 445 604.5 444.5L605.2 443L724.8 443.2L725.5 444.7C725.7 445.3 749.8 500.9 760.1 585.1C766.2 634.5 766.4 684 760.9 732.2C754 792.4 737.8 850.8 713 905.5L712.2 907ZM620.9 901.8L709 902C764.1 779.6 764.5 662.6 755.1 585.9C745.8 510 725.3 457.5 721.5 448.2L608.5 448C604.7 457.4 584.2 509.8 574.9 585.7C565.4 662.4 565.8 779.4 620.9 901.8Z" fill="#25383F"/>
<path d="M675.2 780.9H653.9V945.4H675.2V780.9Z" fill="#25383F"/>
<path d="M664.7 603.4C687.73 603.4 706.4 584.73 706.4 561.7C706.4 538.67 687.73 520 664.7 520C641.67 520 623 538.67 623 561.7C623 584.73 641.67 603.4 664.7 603.4Z" fill="white"/>
<path d="M664.7 605.9C640.3 605.9 620.5 586.1 620.5 561.7C620.5 537.3 640.3 517.5 664.7 517.5C689.1 517.5 708.9 537.3 708.9 561.7C708.9 586.1 689 605.9 664.7 605.9ZM664.7 522.5C643.1 522.5 625.5 540.1 625.5 561.7C625.5 583.3 643.1 600.9 664.7 600.9C686.3 600.9 703.9 583.3 703.9 561.7C703.9 540.1 686.3 522.5 664.7 522.5Z" fill="#25383F"/>
<path d="M664.5 659C673.06 659 680 652.06 680 643.5C680 634.94 673.06 628 664.5 628C655.94 628 649 634.94 649 643.5C649 652.06 655.94 659 664.5 659Z" fill="#25383F"/>
<path d="M664.5 715C673.06 715 680 708.06 680 699.5C680 690.94 673.06 684 664.5 684C655.94 684 649 690.94 649 699.5C649 708.06 655.94 715 664.5 715Z" fill="#25383F"/>
<path d="M622 463C624.209 463 626 461.209 626 459C626 456.791 624.209 455 622 455C619.791 455 618 456.791 618 459C618 461.209 619.791 463 622 463Z" fill="#25383F"/>
<path d="M628 894C630.209 894 632 892.209 632 890C632 887.791 630.209 886 628 886C625.791 886 624 887.791 624 890C624 892.209 625.791 894 628 894Z" fill="#25383F"/>
<path d="M644 894C646.209 894 648 892.209 648 890C648 887.791 646.209 886 644 886C641.791 886 640 887.791 640 890C640 892.209 641.791 894 644 894Z" fill="#25383F"/>
<path d="M685 894C687.209 894 689 892.209 689 890C689 887.791 687.209 886 685 886C682.791 886 681 887.791 681 890C681 892.209 682.791 894 685 894Z" fill="#25383F"/>
<path d="M701 894C703.209 894 705 892.209 705 890C705 887.791 703.209 886 701 886C698.791 886 697 887.791 697 890C697 892.209 698.791 894 701 894Z" fill="#25383F"/>
<path d="M638.9 463C641.109 463 642.9 461.209 642.9 459C642.9 456.791 641.109 455 638.9 455C636.691 455 634.9 456.791 634.9 459C634.9 461.209 636.691 463 638.9 463Z" fill="#25383F"/>
<path d="M655.8 463C658.009 463 659.8 461.209 659.8 459C659.8 456.791 658.009 455 655.8 455C653.591 455 651.8 456.791 651.8 459C651.8 461.209 653.591 463 655.8 463Z" fill="#25383F"/>
<path d="M672.7 463C674.909 463 676.7 461.209 676.7 459C676.7 456.791 674.909 455 672.7 455C670.491 455 668.7 456.791 668.7 459C668.7 461.209 670.491 463 672.7 463Z" fill="#25383F"/>
<path d="M689.6 463C691.809 463 693.6 461.209 693.6 459C693.6 456.791 691.809 455 689.6 455C687.391 455 685.6 456.791 685.6 459C685.6 461.209 687.391 463 689.6 463Z" fill="#25383F"/>
<path d="M706.4 463C708.609 463 710.4 461.209 710.4 459C710.4 456.791 708.609 455 706.4 455C704.191 455 702.4 456.791 702.4 459C702.4 461.209 704.191 463 706.4 463Z" fill="#25383F"/>
<path d="M731.6 468H598.3V473H731.6V468Z" fill="#25383F"/>
<path d="M723 872.5H607V877.5H723V872.5Z" fill="#25383F"/>
<path d="M79.5 354C91.3741 354 101 344.374 101 332.5C101 320.626 91.3741 311 79.5 311C67.6259 311 58 320.626 58 332.5C58 344.374 67.6259 354 79.5 354Z" fill="#25383F"/>
<path d="M122.5 354.5H2.5V395.5H122.5V354.5Z" fill="white"/>
<path d="M125 398H0V352H125V398ZM5 393H120V357H5V393Z" fill="#25383F"/>
<path d="M272.5 170.5H152.5V211.5H272.5V170.5Z" fill="#FF6F00"/>
<path d="M275 214H150V168H275V214ZM155 209H270V173H155V209Z" fill="#25383F"/>
<path d="M1374 943.5H64V948.5H1374V943.5Z" fill="#25383F"/>
</svg>
