<svg width="422" height="302" viewBox="0 0 422 302" fill="none" xmlns="http://www.w3.org/2000/svg">
<path d="M355.962 300.393C355.962 300.554 355.962 300.715 355.962 300.876H233.872C233.872 300.715 233.872 300.554 233.872 300.393C233.872 266.665 261.189 239.348 294.917 239.348C328.645 239.348 355.962 266.665 355.962 300.393Z" fill="#FF6F00"/>
<path d="M122.573 244.663H38.1732V300.071H122.573V244.663Z" fill="white"/>
<path d="M123.379 300.876H37.3679V243.858H123.379V300.876ZM38.9786 299.266H121.768V245.469H38.9786V299.266Z" fill="#25383F"/>
<path d="M131.819 290.02C132.978 290.793 136.039 291.857 143.995 291.857C143.995 291.857 151.727 293.145 154.304 289.279L152.049 282.515L134.009 282.192L131.4 288.603C131.174 289.118 131.368 289.698 131.819 290.02Z" fill="#25383F"/>
<path d="M175.887 271.562C175.887 271.562 179.559 273.591 186.518 268.985C189.062 267.277 194.249 263.186 193.927 259.32L187.162 254.811L174.598 262.864L175.887 271.562Z" fill="#25383F"/>
<path d="M102.762 174.115V161.842C102.762 161.842 113.167 162.873 105.371 145.123L90.8428 149.762L92.9045 160.424L91.2294 173.471L102.762 174.115Z" fill="white"/>
<path d="M103.567 174.953L90.3273 174.179L92.0991 160.424L89.9086 149.214L105.822 144.156L106.112 144.833C109.366 152.242 109.946 157.461 107.819 160.392C106.531 162.164 104.662 162.583 103.567 162.647V174.953ZM92.1313 172.698L101.957 173.277V160.972L102.826 161.068C102.923 161.068 105.21 161.262 106.499 159.458C107.658 157.815 108.303 154.207 104.888 146.153L91.7126 150.341L93.6776 160.424L92.1313 172.698Z" fill="#25383F"/>
<path d="M98.0265 151.952C98.0265 151.952 96.6412 149.246 94.9339 151.018C94.193 151.759 94.1608 153.853 96.8023 154.787C96.8023 154.787 97.2211 159.522 92.4535 160.006C92.4535 160.006 86.4617 153.982 88.4912 147.152C88.4912 147.152 80.2767 149.214 78.9237 141.74C78.5049 139.485 79.9545 135.233 84.8832 134.814C87.3315 134.621 91.777 135.813 91.8736 141.676C91.8736 141.676 102.182 135.845 106.821 146.572C106.821 146.54 103.116 151.759 98.0265 151.952Z" fill="#25383F"/>
<path d="M72.1588 223.241C72.1588 223.241 72.1588 231.295 100.185 225.496C100.185 225.496 108.431 223.402 110.268 214.447L76.6687 218.57L72.1588 223.241Z" fill="#FF6F00"/>
<path d="M145.187 283.771C145.187 283.771 147.7 293.081 153.627 294.111C161.036 295.4 163.163 299.33 163.356 300.232H134.364L136.393 284.093L145.187 283.771Z" fill="white"/>
<path d="M164.354 301.037H133.462L135.684 283.287L145.799 282.901L145.96 283.513C145.993 283.61 148.409 292.339 153.756 293.274C161.391 294.594 163.871 298.718 164.129 300.039L164.354 301.037ZM135.265 299.427H162.067C161.133 298.041 158.653 295.786 153.466 294.884C147.958 293.95 145.284 286.767 144.575 284.576L137.069 284.866L135.265 299.427Z" fill="#25383F"/>
<path d="M187.387 258C187.387 258 194.249 264.475 200.692 261.93C207.714 259.16 211.548 261.092 212.192 261.769L187.903 277.586L179.237 261.769L187.387 258Z" fill="white"/>
<path d="M187.613 278.745L178.11 261.414L187.548 257.033L187.935 257.42C187.999 257.484 194.507 263.508 200.402 261.189C207.682 258.322 211.87 260.287 212.772 261.221L213.448 261.93L187.613 278.745ZM180.333 262.155L188.16 276.458L210.646 261.833C209.132 261.253 205.878 260.802 200.981 262.703C194.99 265.054 188.869 260.351 187.258 258.966L180.333 262.155Z" fill="#25383F"/>
<path d="M76.5399 216.476C76.5399 216.476 72.0621 240.121 87.1382 242.924C102.214 245.759 134.686 237.995 134.686 237.995L132.109 287.894C132.109 287.894 137.553 284.737 143.351 285.059C149.472 285.414 153.531 287.894 153.531 287.894L160.135 216.541L76.5399 216.476Z" fill="#DEE6E9"/>
<path d="M131.239 289.344L131.303 287.862L133.816 239.026C128.017 240.347 100.7 246.306 86.9771 243.729C83.4336 243.053 80.631 241.249 78.6338 238.317C73.1897 230.328 75.6379 216.895 75.7667 216.315L75.8956 215.671L161.036 215.768L154.239 289.279L153.144 288.603C153.112 288.571 149.15 286.219 143.351 285.897C137.875 285.575 132.624 288.571 132.56 288.603L131.239 289.344ZM142.514 284.254C142.803 284.254 143.126 284.254 143.416 284.286C147.861 284.544 151.211 285.865 152.854 286.638L159.265 217.378L77.2486 217.282C76.8298 220.052 75.5735 230.94 79.9867 237.415C81.7263 239.96 84.2067 241.571 87.2992 242.151C102.021 244.921 134.202 237.286 134.525 237.222L135.588 236.964L133.043 286.573C134.847 285.704 138.519 284.254 142.514 284.254Z" fill="#25383F"/>
<path d="M92.0347 165.611C92.0347 165.611 82.5961 168.639 77.6674 170.733C77.6674 170.733 72.9642 172.827 71.6112 182.426C71.6112 182.426 65.6194 208.423 74.0917 211.966L72.1588 223.241C72.1588 223.241 80.2123 218.731 90.8428 218.087C95.7393 217.797 110.686 216.992 110.686 216.992L110.235 193.347L120.641 204.396L125.15 194.41L113.07 174.663C112.007 172.923 110.59 171.474 108.882 170.378L102.697 166.448C102.665 166.416 98.5097 171.828 92.0347 165.611Z" fill="#25383F"/>
<path d="M94.1608 214.221C85.8174 214.221 77.4419 213.867 73.7051 212.611L74.2205 211.097C81.8551 213.641 111.073 212.256 115.486 212.031L117.161 206.619L81.533 201.239L82.9182 190.351L84.5288 190.544L83.337 199.886L119.288 205.33L116.71 213.577L116.163 213.609C115.357 213.642 104.791 214.221 94.1608 214.221Z" fill="white"/>
<path d="M123.25 217.282H84.6899V213.641H123.25V217.282ZM86.3006 215.671H121.639V215.252H86.3006V215.671Z" fill="white"/>
<path d="M154.272 192.09H115.873L104.34 216.573H142.739L154.272 192.09Z" fill="white"/>
<path d="M143.254 217.378H103.052L115.357 191.285H155.56L143.254 217.378ZM105.597 215.767H142.224L153.015 192.896H116.388L105.597 215.767Z" fill="#25383F"/>
<path d="M161.681 208.004L192.38 258.225C192.38 258.225 189.223 257.646 183.586 261.253C179.076 264.153 175.855 270.273 175.855 270.273C175.855 270.273 149.343 233.356 139.647 216.476L113.135 216.509L151.276 204.139C155.238 202.882 159.522 204.461 161.681 208.004Z" fill="#DEE6E9"/>
<path d="M175.984 271.787L175.211 270.724C174.953 270.37 148.989 234.162 139.196 217.282L108.013 217.314L151.018 203.365C155.335 201.98 160.006 203.687 162.357 207.553L194.023 259.321L192.252 258.998C192.219 258.998 189.288 258.547 184.037 261.898C179.753 264.636 176.628 270.563 176.596 270.628L175.984 271.787ZM140.162 215.671L140.388 216.09C149.053 231.166 171.474 262.735 175.823 268.791C176.982 266.859 179.688 262.832 183.2 260.577C186.775 258.29 189.449 257.613 190.995 257.42L161.036 208.423C159.071 205.201 155.174 203.752 151.566 204.912L118.321 215.703L140.162 215.671Z" fill="#25383F"/>
<path d="M109.54 184.235L109.482 193.577L111.093 193.587L111.151 184.245L109.54 184.235Z" fill="white"/>
<path d="M133.558 205.546C134.148 204.154 133.762 202.659 132.697 202.209C131.632 201.758 130.291 202.522 129.701 203.915C129.112 205.308 129.498 206.802 130.563 207.253C131.628 207.703 132.969 206.939 133.558 205.546Z" fill="#25383F"/>
<path d="M295.078 286.316C296.044 286.96 299.137 288.635 305.386 288.635C305.386 288.635 313.568 289.247 316.403 286.058C316.564 285.865 316.596 285.607 316.468 285.414L315.372 283.481H296.688L294.981 285.736C294.852 285.929 294.884 286.187 295.078 286.316Z" fill="#25383F"/>
<path d="M382.732 103.277L383.344 87.9435L383.408 74.7681L370.426 73.6406C370.426 73.6406 360.375 91.487 372.165 91.5515L370.523 102.472L382.732 103.277Z" fill="white"/>
<path d="M383.505 104.115L369.62 103.213L371.263 92.2924C369.008 92.0991 367.43 91.1971 366.496 89.6186C363.5 84.4322 369.491 73.6729 369.749 73.2219L370.007 72.7709L384.245 74.0272L384.181 87.9435L383.505 104.115ZM371.457 101.731L381.958 102.408L382.538 87.8791L382.603 75.4768L370.877 74.446C369.169 77.6673 365.851 85.3342 367.849 88.7811C368.59 90.0696 370.007 90.6817 372.165 90.7139H373.1L371.457 101.731Z" fill="#25383F"/>
<path d="M365.4 72.3199C365.336 69.7428 369.588 70.1938 369.588 70.1938C368.396 69.6783 368.138 68.9052 368.299 68.3898C369.298 65.2973 374.936 68.5831 374.936 68.5831C374.42 67.0368 375.805 67.1335 375.805 67.1335C378.093 67.3267 381.797 69.6783 384.31 71.4501C385.244 71.6756 396.905 74.6714 383.891 90.1018C383.891 90.1018 380.058 90.6173 380.863 84.0779C380.863 84.0779 383.311 81.2431 380.541 80.1478C380.025 79.9223 379.413 80.0834 378.995 80.4699C377.996 81.4364 377.674 82.2739 377.674 82.2739L376.45 82.0484L376.997 78.7948C371.907 77.6029 365.465 75.4768 365.4 72.3199Z" fill="#25383F"/>
<path d="M380.444 171.055C380.444 171.055 373.357 180.075 347.264 175.243C347.264 175.243 332.124 172.343 333.09 162.357L335.345 156.881L376.901 163.324L380.444 171.055Z" fill="#FF6F00"/>
<path d="M368.525 287.991C368.525 287.991 371.424 291.212 382.699 289.924C382.699 289.924 388.498 289.602 389.786 287.991L387.531 283.481L370.136 284.125L368.525 287.991Z" fill="#25383F"/>
<path d="M373.035 282.74L375.193 300.071H399.772C399.772 300.071 398.452 296.109 392.17 294.305C386.565 292.694 383.15 284.898 383.15 283.094L373.035 282.74Z" fill="white"/>
<path d="M400.9 300.876H374.485L372.101 281.902L383.955 282.321V283.094C383.955 284.705 387.241 292.017 392.395 293.531C398.967 295.432 400.449 299.652 400.513 299.845L400.9 300.876ZM375.902 299.266H398.419C397.614 298.074 395.778 296.173 391.945 295.078C386.468 293.499 383.086 286.67 382.441 283.9L373.937 283.61L375.902 299.266Z" fill="#25383F"/>
<path d="M300.715 282.998C300.715 282.998 299.233 292.565 292.017 293.95C289.15 294.498 283.32 295.239 281.709 299.749H311.023C311.023 299.749 312.151 290.568 312.956 282.998H300.715Z" fill="white"/>
<path d="M311.732 300.554H280.582L280.968 299.491C282.611 294.852 288.216 293.854 291.244 293.306C291.47 293.274 291.695 293.209 291.889 293.177C298.46 291.921 299.942 282.998 299.942 282.901L300.039 282.225H313.858L313.762 283.127C312.956 290.632 311.829 299.813 311.829 299.878L311.732 300.554ZM282.998 298.944H310.315C310.573 296.753 311.41 289.859 312.055 283.803H301.36C300.844 286.122 298.75 293.467 292.146 294.756C291.953 294.788 291.728 294.82 291.502 294.885C288.925 295.336 284.802 296.076 282.998 298.944Z" fill="#25383F"/>
<path d="M331.157 151.082L372.391 158.169L389.786 287.991C389.786 287.991 385.598 285.994 380.444 285.736C373.679 285.414 368.364 287.991 368.364 287.991L350.002 195.054L316.5 285.897C316.5 285.897 310.218 284.125 305.708 284.125C301.198 284.125 294.917 285.897 294.917 285.897L331.157 151.082Z" fill="#25383F"/>
<path d="M379.8 170.089L379.639 150.277C379.639 150.277 389.078 139.325 392.911 123.346C393.91 119.223 393.104 114.874 390.753 111.363L383.182 100.024C383.182 100.024 371.585 104.212 370.619 96.8024H352.901L330.513 164.29C330.513 164.29 343.849 160.65 362.405 163.968C371.424 165.579 379.8 170.089 379.8 170.089Z" fill="#FDB092"/>
<path d="M380.605 171.441L379.413 170.797C379.317 170.765 371.038 166.319 362.243 164.773C344.107 161.552 330.835 165.031 330.706 165.095L329.257 165.482L352.289 96.0291H371.296L371.392 96.7378C371.553 98.0908 372.133 99.025 373.132 99.637C376.385 101.602 382.828 99.3149 382.892 99.3149L383.472 99.0894L391.397 110.944C393.877 114.649 394.715 119.255 393.684 123.572C390.173 138.293 381.829 148.892 380.444 150.599L380.605 171.441ZM346.845 161.777C351.42 161.777 356.735 162.132 362.566 163.162C369.717 164.451 376.353 167.447 378.995 168.768L378.834 149.987L379.027 149.762C379.123 149.665 388.401 138.777 392.138 123.185C393.072 119.32 392.299 115.196 390.076 111.846L382.86 101.022C381.056 101.602 375.612 103.019 372.326 101.022C371.102 100.281 370.297 99.1538 369.942 97.6397H353.481L331.737 163.227C334.153 162.679 339.565 161.777 346.845 161.777Z" fill="#25383F"/>
<path d="M358.217 58.4657H176.531V187.965H358.217V58.4657Z" fill="white"/>
<path d="M359.022 188.77H175.726V57.6604H359.022V188.77ZM177.337 187.16H357.411V59.2711H177.337V187.16Z" fill="#25383F"/>
<path d="M250.034 154.467L250.743 155.177L251.451 154.467L258.258 147.634L258.962 146.928L258.258 146.222L235.104 123.012L258.258 99.7951L258.962 99.0893L258.258 98.3832L251.451 91.5508L250.743 90.8401L250.034 91.5504L219.362 122.306L218.658 123.012L219.363 123.718L250.034 154.467Z" fill="#FF6F00" stroke="#25383F" stroke-width="2"/>
<path d="M286.207 154.467L285.499 155.177L284.791 154.467L277.983 147.634L277.28 146.928L277.984 146.222L301.138 123.012L277.984 99.7951L277.28 99.0893L277.983 98.3832L284.791 91.5508L285.499 90.8401L286.207 91.5504L316.879 122.306L317.584 123.012L316.879 123.718L286.207 154.467Z" fill="#FF6F00" stroke="#25383F" stroke-width="2"/>
<path d="M324.5 73.6633L304.068 99.3977L329.803 119.829L350.234 94.0944L324.5 73.6633Z" fill="#25383F"/>
<path d="M329.901 120.995L302.906 99.5726L324.328 72.5775L351.323 93.9997L329.901 120.995ZM305.161 99.3149L329.611 118.74L349.036 94.2895L324.586 74.8647L305.161 99.3149Z" fill="#25383F"/>
<path d="M355.962 116.936L347.103 107.111L344.204 101.957L341.949 104.856L337.504 100.893C336.763 100.249 335.635 100.7 335.506 101.667C335.216 104.276 335.603 108.947 340.66 113.586L348.553 124.699L355.962 116.936Z" fill="white"/>
<path d="M348.456 125.923L340.048 114.069C334.733 109.172 334.411 104.115 334.701 101.538C334.797 100.797 335.281 100.152 335.989 99.8947C336.698 99.637 337.471 99.7659 338.051 100.281L341.852 103.664L344.333 100.475L347.78 106.595L357.089 116.904L348.456 125.923ZM336.698 101.377C336.634 101.377 336.569 101.377 336.569 101.409C336.505 101.441 336.344 101.505 336.311 101.731C336.054 104.018 336.344 108.496 341.208 112.941L341.272 113.006L348.649 123.411L354.867 116.936L346.459 107.594L344.107 103.406L342.078 106.015L336.988 101.473C336.891 101.409 336.795 101.377 336.698 101.377Z" fill="#25383F"/>
<path d="M368.525 131.754L355.318 113.715L345.976 123.379L362.727 148.505L368.525 131.754Z" fill="#FDB092"/>
<path d="M371.94 154.271C371.553 154.271 371.134 154.239 370.748 154.207C367.526 153.82 364.531 151.888 362.34 148.731C358.184 142.803 345.46 124.023 345.331 123.829L344.977 123.282L355.092 112.458L370.683 132.817L375.258 123.668L376.707 124.377L370.973 135.845L354.995 114.971L347.071 123.475C349.197 126.6 359.956 142.449 363.725 147.797C365.69 150.599 368.235 152.274 371.006 152.596C373.808 152.918 376.707 151.855 379.349 149.504L380.412 150.696C377.706 153.047 374.839 154.271 371.94 154.271Z" fill="#25383F"/>
<path d="M217.926 0.805298H179.269V14.0129H217.926V0.805298Z" fill="#FF6F00"/>
<path d="M218.731 14.8183H178.464V0H218.731V14.8183ZM180.075 13.2076H217.121V1.61069H180.075V13.2076Z" fill="#25383F"/>
<path d="M59.4207 72.3901H31.4591V100.352H59.4207V72.3901Z" fill="#25383F"/>
<path d="M68.7305 82.1187H40.7689V110.08H68.7305V82.1187Z" fill="white"/>
<path d="M69.5359 110.885H39.9636V81.3132H69.5359V110.885ZM41.5743 109.275H67.9252V82.9239H41.5743V109.275Z" fill="#25383F"/>
<path d="M422 299.588H0V301.199H422V299.588Z" fill="#25383F"/>
</svg>
