<svg width="1323" height="706" viewBox="0 0 1323 706" fill="none" xmlns="http://www.w3.org/2000/svg">
<path d="M416.852 3.0625H1041.5V450.5H416.852V3.0625Z" fill="white" stroke="#25383F" stroke-width="5"/>
<path d="M416.852 3.0625H1041.5V45.5625H416.852V3.0625Z" fill="#FF6F00" stroke="#25383F" stroke-width="5"/>
<path d="M339 646.4H307.9V702.3H339V646.4Z" fill="white"/>
<path d="M341.5 704.8H305.4V643.9H341.5V704.8ZM310.4 699.8H336.5V648.9H310.4V699.8Z" fill="#25383F"/>
<path d="M536.7 646.7H505.6V702.6H536.7V646.7Z" fill="#25383F"/>
<path d="M539.2 705.1H503.1V644.2H539.2V705.1ZM508.1 700.1H534.2V649.2H508.1V700.1Z" fill="#25383F"/>
<path d="M910.7 646.4H879.6V702.3H910.7V646.4Z" fill="white"/>
<path d="M913.2 704.8H877.1V643.9H913.2V704.8ZM882.1 699.8H908.2V648.9H882.1V699.8Z" fill="#25383F"/>
<path d="M1108.4 646.7H1077.3V702.6H1108.4V646.7Z" fill="#25383F"/>
<path d="M1110.9 705.1H1074.8V644.2H1110.9V705.1ZM1079.8 700.1H1105.9V649.2H1079.8V700.1Z" fill="#25383F"/>
<path d="M1127.4 635.5H287.5V661.2H1127.4V635.5Z" fill="white"/>
<path d="M1129.9 663.7H285V633H1129.9V663.7ZM290 658.7H1124.9V638H290V658.7Z" fill="#25383F"/>
<path d="M419 399C419 399 432 398 440 422C440 422 448 444 437 460L417 464L402 405L419 399Z" fill="#25383F"/>
<path d="M398 412L441.1 393.2C441.1 393.2 449 376.4 448.9 358C448.9 358 468.1 358.6 462.2 384C462.2 384 487.2 370.5 490.3 391.4C490.3 391.4 499.9 410.5 492.1 419.2C484.3 427.9 456.5 434.8 438.8 431.4L409.9 449.3L398 412Z" fill="white"/>
<path d="M409.9 451.8C409.6 451.8 409.3 451.7 409 451.6C408.3 451.3 407.7 450.7 407.5 450L395.6 412.7C395.2 411.5 395.8 410.2 397 409.6L439.2 391.1C440.7 387.5 446.5 373.1 446.4 357.9C446.4 357.2 446.7 356.6 447.2 356.1C447.7 355.6 448.3 355.4 449 355.4C449.3 355.4 457.1 355.7 462 362.2C465.3 366.5 466.5 372.4 465.6 379.7C470.6 377.8 478.8 375.6 485.1 378.7C489.3 380.8 491.9 384.8 492.8 390.6C494.2 393.5 502.3 411.6 494 420.9C485.5 430.3 457.3 437.1 439.4 434L411.3 451.4C410.8 451.7 410.4 451.8 409.9 451.8ZM401.1 413.4L411.4 445.5L437.6 429.3C438.1 429 438.8 428.9 439.4 429C457 432.4 483.4 425.3 490.3 417.6C495.7 411.5 490.6 397.5 488.1 392.5C488 392.3 487.9 392 487.9 391.8C487.3 387.4 485.6 384.6 482.8 383.3C476.9 380.3 466.8 384.4 463.4 386.2C462.5 386.7 461.5 386.6 460.7 386C459.9 385.4 459.6 384.4 459.8 383.4C461.7 375.4 461.1 369.3 458.1 365.3C456.1 362.7 453.4 361.5 451.4 360.9C450.8 378.4 443.8 393.5 443.4 394.2C443.1 394.7 442.7 395.2 442.1 395.4L401.1 413.4Z" fill="#25383F"/>
<path d="M467.4 403.9C465.2 403.9 463.4 403.5 462 402.9C458.9 401.6 456.8 399 456.4 395.9C456.2 394.5 455.7 390.6 472.9 385.8C474.2 385.4 475.6 386.2 476 387.5C476.4 388.8 475.6 390.2 474.3 390.6C468.7 392.2 463 394.5 461.6 395.8C461.8 396.5 462.4 397.6 464.1 398.3C466.4 399.3 473.5 400.4 488.9 389.4C490 388.6 491.6 388.9 492.4 390C493.2 391.1 492.9 392.7 491.8 393.5C480.4 401.5 472.7 403.9 467.4 403.9Z" fill="#25383F"/>
<path d="M466.2 412.6C462.2 412.6 459.5 411.5 458 409.2C455.3 405.1 458.6 399.4 458.9 398.8C459.6 397.6 461.2 397.2 462.3 398C463.5 398.7 463.9 400.2 463.1 401.4C462.4 402.6 461.3 405.4 462.1 406.5C462.6 407.3 464.8 408 469.2 407.4C483.8 405.5 490.8 397.5 490.9 397.4C491.8 396.4 493.4 396.3 494.4 397.2C495.4 398.1 495.5 399.7 494.6 400.7C494.3 401.1 486.2 410.1 469.8 412.3C468.6 412.5 467.4 412.6 466.2 412.6Z" fill="#25383F"/>
<path d="M471.5 419.3C468.2 419.3 465.8 418.4 464.5 416.5C462.3 413.5 464 409.7 464.2 409.3C464.8 408 466.3 407.5 467.5 408.1C468.7 408.7 469.3 410.2 468.7 411.4C468.5 411.9 468.2 413.2 468.5 413.7C468.8 414.2 470.2 414.6 473 414.3C482.6 413.3 493.3 406.3 493.4 406.2C494.6 405.4 496.1 405.8 496.9 406.9C497.7 408.1 497.3 409.6 496.2 410.4C495.7 410.7 484.4 418.2 473.5 419.3C472.9 419.2 472.2 419.3 471.5 419.3Z" fill="#25383F"/>
<path d="M479.7 424.6C477.2 424.6 475 424.1 473.1 423.2C469.1 421.3 468 418.1 467.9 417.7C467.5 416.4 468.2 415 469.5 414.6C470.8 414.2 472.2 414.9 472.6 416.2C472.6 416.3 473.3 417.8 475.4 418.8C477.8 419.9 482.5 420.4 491.1 416.9C492.4 416.4 493.8 417 494.4 418.3C494.9 419.6 494.3 421 493 421.6C487.9 423.6 483.5 424.6 479.7 424.6Z" fill="#25383F"/>
<path d="M269 581C269 581 264 637 161.6 638.6C110.3 639.4 64.1 631.6 55 598L65 556L263.1 562L269 581Z" fill="#F5B3A5"/>
<path d="M85.1 540C85.1 540 78.2 542.3 66.4 606L53.7 702H162.8L216.1 540H85.1Z" fill="#25383F"/>
<path d="M256.9 539.5C256.9 539.5 262 636 268.2 702H123.6L154.1 547.7L256.9 539.5Z" fill="#25383F"/>
<path d="M202.865 579.611L160.292 701.065L165.01 702.719L207.584 581.265L202.865 579.611Z" fill="white"/>
<path d="M146.9 354.1L152.9 284.5L160.2 225L219.5 227.4C219.5 227.4 254.7 313.7 201.3 307.3L202.4 357.6L146.9 354.1Z" fill="white"/>
<path d="M205 360.2L144.2 356.4L150.5 284.2L158.1 222.3L221.3 224.8L221.9 226.3C222.8 228.5 243.4 279.9 227.3 301.1C222.3 307.6 214.5 310.6 204 310L205 360.2ZM149.6 351.7L199.9 354.8L198.8 304.4L201.7 304.7C211.8 305.9 219 303.7 223.3 298C236.3 280.9 221.1 238.2 217.8 229.7L162.5 227.5L155.5 284.7L149.6 351.7Z" fill="#25383F"/>
<path d="M242.9 224.4C244.6 212.8 225.3 212.4 225.3 212.4C230.9 210.7 232.6 207.5 232.1 205C229.3 190.4 202.1 202.1 202.1 202.1C205.3 195.4 198.9 195.1 198.9 195.1C188.4 194.7 170.4 203.1 158 209.7C153.7 210.1 99.2999 216.9 149.2 294.1C149.2 294.1 166.2 298.6 166.3 268.7C166.3 268.7 156.8 254.4 170 251.1C172.5 250.5 175.2 251.4 176.8 253.4C179 256.2 180.3 258.6 180.9 260.2C181.4 261.4 182.7 262.2 184 262.2H184.1C185.9 262.1 187.2 260.6 187.2 258.8L186.7 247C210.5 244.5 240.8 238.6 242.9 224.4Z" fill="#25383F"/>
<path d="M146 314C146 314 199.5 360.1 203 320L230.1 334.4C238.6 338.9 245.8 345.5 251.1 353.5L297 424L420 399C420 399 414.8 406.8 418.6 428.2C423 453 438 460 438 460L257 512L269 581C269 581 258 565.4 167 570C88 574 54.8 598 54.8 598C54.8 598 62.7 453.1 60 398C58 358 84 344 84 344L146 314Z" fill="#FF6F00"/>
<path d="M258 474C258 474 284 510 261 542C261 542 247 529 244.1 504.5C244.1 504.5 243 482 258 474Z" fill="#25383F"/>
<path d="M400 419C407 427 415 432 415 432C415 432 401 443 375 455C362.1 461 320.1 475.5 320.1 475.5L289.7 421.2L372.2 378.8C372.3 378.8 391.5 409.3 400 419Z" fill="#25383F"/>
<path d="M410.3 409.9C410.3 409.9 383.6 373 367.8 341.2C367.8 341.2 333.3 381.9 241.5 432.7C241.5 432.7 259.7 488.4 273.5 503.1C273.4 503.2 380.5 450.4 410.3 409.9Z" fill="white"/>
<path d="M273.4 505.7C272.7 505.7 272.1 505.4 271.6 504.9C257.6 490 239.8 435.9 239.1 433.6C238.7 432.5 239.2 431.2 240.3 430.6C330.7 380.6 365.6 340.1 365.9 339.7C366.4 339.1 367.3 338.7 368.1 338.8C368.9 338.9 369.7 339.4 370 340.2C385.5 371.4 412 408.1 412.3 408.5C412.9 409.4 412.9 410.6 412.3 411.4C382.5 451.9 278.9 503.2 274.5 505.4C274.1 505.6 273.8 505.7 273.4 505.7ZM244.5 434C247.7 443.6 262.4 485.9 274 500.1C287.7 493.2 378.8 446.5 407.2 409.9C402.2 402.9 381.2 372.8 367.2 345.6C357.7 355.6 321 391.4 244.5 434Z" fill="#25383F"/>
<path d="M249.6 483.5L289.8 475.2L308.2 447.6C310.1 444.7 314.5 445.1 315.9 448.3C317.6 452.2 318.1 458.9 313.4 470.5C313.4 470.5 320.5 477.6 333.4 474L361.1 458.1C361.1 458.1 364.6 477 344 492.9C324.3 508.1 305.1 507 305.1 507L251.6 524.7C251.6 524.7 246 514.9 244.6 503.9C243 491.1 249.6 483.5 249.6 483.5Z" fill="white"/>
<path d="M250.5 527.8L249.5 526C249.3 525.6 243.6 515.6 242.2 504.3C240.4 490.4 247.5 482.2 247.8 481.9L248.4 481.3L288.4 473.1L306.2 446.4C307.6 444.3 310 443.1 312.5 443.4C315 443.6 317.2 445.2 318.2 447.5C320.5 452.9 320 460.4 316.4 469.9C318.7 471.4 324.1 474.1 332.5 471.9L363 454.4L363.6 457.9C363.8 458.7 367.2 478.5 345.6 495.1C326.9 509.5 308.8 509.8 305.5 509.8L250.5 527.8ZM251 485.8C249.6 487.7 245.8 494 247.1 503.7C248.1 511.4 251.2 518.5 252.9 521.8L304.8 504.6H305.3C305.5 504.6 323.9 505.4 342.5 491C356.4 480.2 358.7 468.3 358.9 462.4L334.4 476.5L334.1 476.6C319.9 480.5 312 472.7 311.6 472.4L310.4 471.2L311 469.7C315.5 458.5 314.8 452.5 313.5 449.5C313.1 448.6 312.3 448.4 311.9 448.4C311.6 448.4 310.7 448.4 310.2 449.2L291.2 477.6L251 485.8Z" fill="#25383F"/>
<path d="M109.7 553.7C96.5 553.7 84.6 544.9 80.9 532.1L60.6 461.7L65.4 460.3L85.7 530.7C89 542 99.8 549.5 111.5 548.6L253.6 537.8C240.9 517.1 240.8 501.4 243 491.7C244.4 485.9 246.7 481.5 248.7 478.5L144.1 478.6L116.5 367L121.4 365.8L148 473.6L260.4 473.5L255.7 477.9C254.8 478.7 233.7 499.1 260.1 538.7L262.5 542.3L112 553.7C111.2 553.6 110.4 553.7 109.7 553.7Z" fill="#25383F"/>
<path d="M358 370L357 379L372 380.7" fill="white"/>
<path d="M371.7 383.2L354.2 381.2L355.5 369.7L360.5 370.3L359.8 376.8L372.3 378.2L371.7 383.2Z" fill="#25383F"/>
<path d="M337 388L336 397L351 398.7" fill="white"/>
<path d="M350.7 401.2L333.2 399.2L334.5 387.7L339.5 388.3L338.8 394.8L351.3 396.2L350.7 401.2Z" fill="#25383F"/>
<path d="M313 403L312 412L327 413.7" fill="white"/>
<path d="M326.7 416.2L309.2 414.2L310.5 402.7L315.5 403.3L314.8 409.8L327.3 411.2L326.7 416.2Z" fill="#25383F"/>
<path d="M379.921 388.481L375.958 391.53L385.957 404.529L389.92 401.48L379.921 388.481Z" fill="#25383F"/>
<path d="M371.975 394.588L368.019 397.645L385.016 419.643L388.972 416.586L371.975 394.588Z" fill="#25383F"/>
<path d="M356.019 405.577L351.842 408.325L360.855 422.025L365.032 419.277L356.019 405.577Z" fill="#25383F"/>
<path d="M347.68 411.086L343.509 413.843L358.838 437.034L363.009 434.277L347.68 411.086Z" fill="#25383F"/>
<path d="M332.247 422.807L327.884 425.249L335.892 439.561L340.255 437.119L332.247 422.807Z" fill="#25383F"/>
<path d="M323.444 427.546L319.086 429.997L332.713 454.227L337.071 451.776L323.444 427.546Z" fill="#25383F"/>
<path d="M248.499 389.872L243.51 390.203L246.086 429.017L251.075 428.686L248.499 389.872Z" fill="#25383F"/>
<path d="M669.211 253.309L701.251 284.558L701.623 284.921L701.971 284.535L760.438 219.704L770.892 229.038L702.376 305.079L659.505 263.388L669.211 253.309Z" fill="#25383F" stroke="black"/>
<path d="M1162.71 360.467L1111.47 366.541L1108 311.369L1107.96 310.818L1107.42 310.906L1107.42 310.906L1107.42 310.907L1107.41 310.907L1107.39 310.911C1107.37 310.914 1107.34 310.918 1107.3 310.924C1107.22 310.935 1107.09 310.951 1106.93 310.968C1106.6 311.002 1106.12 311.043 1105.53 311.065C1104.33 311.11 1102.64 311.084 1100.72 310.799C1096.87 310.228 1092.07 308.625 1088.2 304.508C1080.51 296.314 1076.26 277.88 1091.22 236.795L1157.75 253.477L1151.4 302.035L1151.39 302.116L1151.41 302.195L1162.71 360.467Z" fill="white" stroke="black"/>
<path d="M1165.61 362.667L1109.17 369.341L1105.7 314.069L1105.67 313.589L1105.19 313.6C1100.75 313.699 1091.74 312.806 1085.38 305.181C1080.4 299.164 1078.15 290.333 1078.74 278.7C1079.32 267.071 1082.73 252.699 1088.97 235.675L1089.61 233.993L1160.45 251.677L1153.9 302.036L1153.89 302.116L1153.91 302.195L1165.61 362.667ZM1107.16 309.297L1109.33 309.055L1112.8 364.331L1112.83 364.86L1113.36 364.796L1160.26 359.096L1160.79 359.032L1160.69 358.505L1149.81 302.085L1156 254.965L1156.05 254.523L1155.62 254.415L1092.62 238.615L1092.18 238.505L1092.03 238.932C1078.22 277.761 1082.33 294.899 1088.51 302.417C1095.6 311.042 1107.11 309.3 1107.1 309.3H1107.13L1107.16 309.297Z" fill="#25383F" stroke="black"/>
<path d="M1084.91 243.526C1084.92 243.538 1084.93 243.55 1084.94 243.563C1084.95 243.56 1084.95 243.557 1084.95 243.554L1084.91 243.526ZM1085.18 243.076C1089.67 230.829 1095.98 223.101 1102.91 218.379C1109.89 213.617 1117.54 211.885 1124.65 211.7C1131.76 211.514 1138.32 212.876 1143.11 214.289C1145.51 214.995 1147.45 215.712 1148.8 216.252C1149.47 216.522 1150 216.747 1150.35 216.905C1150.53 216.984 1150.66 217.046 1150.75 217.087C1150.79 217.108 1150.83 217.124 1150.85 217.135L1150.87 217.146L1150.88 217.149L1150.88 217.15C1150.88 217.15 1150.88 217.15 1150.9 217.114L1150.88 217.15L1151.64 217.518L1151.6 216.676C1150.96 203.47 1155.57 195.28 1161.66 190.403C1167.78 185.505 1175.43 183.901 1180.89 184L1180.89 184C1192.03 184.197 1199.47 188.971 1203.98 194.939C1208.5 200.928 1210.09 208.125 1209.5 213.142L1209.5 213.144C1208.54 221.645 1205.48 227.544 1201.45 231.627C1197.42 235.716 1192.4 238.018 1187.46 239.265C1182.53 240.513 1177.71 240.699 1174.12 240.572C1172.32 240.509 1170.84 240.367 1169.8 240.242C1169.28 240.179 1168.88 240.12 1168.6 240.077C1168.47 240.056 1168.36 240.038 1168.29 240.027C1168.26 240.021 1168.23 240.016 1168.22 240.013L1168.2 240.009L1168.19 240.009L1168.19 240.008L1167.32 239.846L1167.63 240.674C1173.22 255.751 1169.69 270.481 1164.73 281.482C1162.25 286.979 1159.42 291.53 1157.21 294.707C1156.11 296.295 1155.16 297.538 1154.49 298.383C1154.15 298.806 1153.88 299.129 1153.7 299.345C1153.65 299.401 1153.61 299.45 1153.58 299.492C1148.34 299.284 1144.46 297.836 1141.58 295.797C1138.66 293.725 1136.74 291.022 1135.48 288.326C1134.22 285.628 1133.62 282.945 1133.34 280.933C1133.2 279.928 1133.14 279.093 1133.12 278.512C1133.11 278.274 1133.1 278.079 1133.1 277.932C1138.91 275.436 1141.68 271.791 1142.52 268.279C1143.37 264.737 1142.24 261.37 1140.34 259.632C1138.21 257.664 1136.2 256.958 1134.35 257.092C1132.52 257.225 1130.95 258.177 1129.69 259.332C1128.43 260.488 1127.44 261.881 1126.78 262.974C1126.44 263.523 1126.18 264.001 1126.01 264.342C1125.96 264.443 1125.92 264.531 1125.88 264.607C1114.57 264.799 1104.42 259.42 1097.04 253.936C1093.32 251.173 1090.31 248.394 1088.23 246.311C1087.19 245.27 1086.39 244.403 1085.83 243.799C1085.64 243.593 1085.49 243.418 1085.36 243.276C1085.3 243.21 1085.25 243.152 1085.2 243.1C1085.19 243.092 1085.18 243.084 1085.18 243.076Z" fill="#25383F" stroke="black"/>
<path d="M888.325 423.601C888.317 423.591 888.309 423.579 888.3 423.567C888.239 423.481 888.148 423.346 888.037 423.159C887.815 422.785 887.512 422.201 887.202 421.385C886.582 419.754 885.936 417.186 885.875 413.492C885.752 406.103 887.967 394.192 897.432 376.252L897.461 376.207C897.487 376.166 897.527 376.105 897.579 376.025C897.683 375.865 897.837 375.629 898.037 375.328C898.438 374.725 899.021 373.861 899.753 372.818C901.217 370.732 903.271 367.93 905.635 365.068C908.001 362.205 910.669 359.291 913.358 356.972C915.974 354.717 918.56 353.071 920.873 352.539L945.368 372.135L912.778 435.339L888.325 423.601Z" fill="#25383F" stroke="black"/>
<path d="M1157.46 628.102L1157.46 628.102C1114.41 631.743 1086.8 621.765 1069.96 610.917C1061.54 605.491 1055.8 599.841 1052.17 595.554C1050.36 593.41 1049.07 591.607 1048.24 590.343C1047.83 589.712 1047.53 589.215 1047.33 588.877C1047.24 588.733 1047.18 588.618 1047.13 588.534L1053.3 564.465L1243.55 546.535L1253.38 576.015C1248.85 592.574 1237.65 604.503 1221.22 612.842C1204.73 621.212 1182.98 625.954 1157.46 628.102Z" fill="#FF6F00" stroke="black"/>
<path d="M1228.91 539.5C1228.92 539.506 1228.94 539.512 1228.95 539.52C1229.04 539.559 1229.18 539.627 1229.36 539.738C1229.73 539.96 1230.29 540.355 1231.01 541.031C1232.45 542.386 1234.53 544.869 1236.99 549.353C1241.9 558.324 1248.31 575.263 1254.21 607.078L1266.83 702.5H1158.65L1098.72 539.5H1228.91Z" fill="#25383F" stroke="black"/>
<path d="M1196.94 702.5H1053.46C1057.49 669.634 1060.99 632.883 1063.49 604.294C1064.74 589.917 1065.75 577.603 1066.43 568.883C1066.78 564.523 1067.05 561.062 1067.22 558.69C1067.31 557.504 1067.38 556.591 1067.43 555.974L1067.47 555.467L1179.56 547.234L1196.94 702.5Z" fill="#25383F" stroke="black"/>
<path d="M1114.09 582.594L1117.86 581.27L1160.11 701.781L1156.33 703.104L1114.09 582.594Z" fill="white" stroke="black"/>
<path d="M908.418 355.133L908.477 355.348L908.676 355.447L937.53 369.874L925.683 425.093L848.018 361.379L850.099 334.238L850.125 333.895L849.813 333.748C839.636 328.953 836.284 319.061 835.293 314.114C835.156 313.179 836.022 312.369 836.981 312.586L877.447 323.25L877.694 323.489C877.917 323.704 878.244 324.02 878.66 324.424C879.492 325.23 880.682 326.386 882.113 327.781C884.975 330.573 888.798 334.324 892.647 338.166C896.495 342.009 900.366 345.939 903.323 349.088C904.802 350.663 906.048 352.037 906.947 353.106C907.397 353.64 907.755 354.092 908.011 354.451C908.281 354.83 908.394 355.048 908.418 355.133Z" fill="white" stroke="black"/>
<path d="M847.599 335.739L847.624 335.416L847.339 335.261C837.432 329.866 834.079 320.146 832.89 314.599C832.625 313.271 833.068 311.95 834.036 311.07C835.014 310.181 836.34 309.828 837.671 310.183L837.672 310.183L878.742 321.049L879.146 321.454L879.146 321.454L879.153 321.46C888.101 330.108 895.197 337.104 900.392 342.436C905.599 347.781 908.865 351.424 910.186 353.38L910.259 353.488L910.376 353.547L940.33 368.574L927.283 429.593L845.519 362.579L847.599 335.739ZM849.702 360.559L849.68 360.82L849.883 360.987L924.083 421.787L924.717 422.307L924.889 421.505L935.689 371.005L935.77 370.626L935.424 370.453L907.237 356.359L907.088 355.692L907.072 355.617L907.033 355.55C906.821 355.182 906.398 354.635 905.824 353.957C905.242 353.27 904.482 352.42 903.574 351.437C901.756 349.471 899.333 346.957 896.531 344.112C890.928 338.421 883.8 331.393 876.948 324.741L876.855 324.65L876.728 324.617L837.828 314.317L837.022 314.103L837.213 314.915C838.43 320.086 841.89 328.259 850.685 332.451L850.692 332.455L850.7 332.458L851.972 333.015L849.702 360.559Z" fill="#25383F" stroke="black"/>
<path d="M775.74 307.513L784.248 294.557L808.74 310.64L800.232 323.596L775.74 307.513Z" fill="#25383F" stroke="black"/>
<path d="M667.174 330.382L667.174 330.382C627.205 304.233 616.069 250.644 642.318 210.675C668.567 170.805 722.157 159.67 762.026 185.818L762.026 185.818C801.995 211.967 813.131 265.556 786.882 305.526L786.882 305.526C760.733 345.495 707.144 356.63 667.174 330.382ZM675.326 318.118C708.456 339.869 752.866 330.706 774.618 297.574C796.369 264.444 787.106 219.934 754.074 198.282C720.944 176.531 676.534 185.694 654.782 218.826C633.031 251.956 642.194 296.366 675.326 318.118Z" fill="#FF6F00" stroke="black"/>
<path d="M793.634 324.734L807.082 304.254L900.034 365.292L886.586 385.771L793.634 324.734Z" fill="#FF6F00" stroke="black"/>
<path d="M1253.41 575.35C1253.31 575.325 1253.19 575.298 1253.05 575.268C1252.81 575.215 1252.53 575.153 1252.22 575.084C1250.96 574.811 1249.1 574.424 1246.66 573.962C1241.77 573.038 1234.57 571.818 1225.31 570.629C1206.79 568.251 1180.02 566 1146.99 566.5C1146.99 566.5 1146.99 566.5 1146.99 566.5L1253.41 575.35ZM1253.41 575.35L1227.1 368.266C1227.1 368.265 1227.1 368.265 1227.1 368.264C1225.42 355.62 1218.22 344.36 1207.46 337.638L1160.1 314.604C1146.71 327.717 1136.62 335.249 1129.01 339.148C1121.36 343.069 1116.13 343.357 1112.55 341.835C1108.98 340.314 1107.23 337.053 1106.37 334.257C1105.93 332.852 1105.72 331.543 1105.61 330.585C1105.58 330.353 1105.56 330.141 1105.55 329.953L1070.95 355.365L1023.39 414.314L1023.11 414.655L1022.74 414.427L922.105 353.257C922.352 353.854 922.652 354.623 922.976 355.549C923.821 357.955 924.832 361.418 925.506 365.659C926.855 374.141 926.855 385.741 921.459 398.199L921.459 398.199C916.402 409.83 908.055 416.405 900.98 420.069C897.443 421.9 894.222 423.006 891.883 423.654C890.927 423.919 890.118 424.107 889.494 424.238L1014.24 491.56L1014.61 491.76L1014.47 492.158L1006.64 515.648L1053.12 527.516L1053.55 527.623L1053.5 528.057L1046.6 588.185L1253.41 575.35Z" fill="#F5B3A5" stroke="black"/>
<path d="M1147.82 551.715L1147.82 551.714L999.763 516.557L1005.2 514.157L1005.29 514.12L1005.3 514.104C1005.32 514.095 1005.34 514.085 1005.36 514.073L1005.42 514.046C1005.53 513.985 1005.7 513.896 1005.92 513.778C1006.36 513.542 1006.98 513.191 1007.74 512.714C1009.26 511.761 1011.33 510.306 1013.57 508.27C1018.06 504.199 1023.25 497.8 1026.08 488.445L1026.08 488.444C1032.11 468.437 1024.83 457.78 1024.4 457.206L1021.43 453.028L1026.4 453.99L1026.4 453.991L1123.3 473.59L1123.72 473.674L1123.87 473.279L1147.89 410.746L1151.65 412.188L1126.19 478.326L1030.6 459.01L1029.72 458.831L1030.03 459.676C1032.1 465.183 1034.19 475.271 1029.92 489.658C1025.96 502.921 1017.75 510.738 1012.31 514.696L1011.43 515.335L1012.48 515.586L1148.78 547.986L1148.79 547.987C1158.4 550.237 1168.52 545.841 1173.43 537.35L1173.43 537.348L1223.08 450.585L1226.52 452.583L1176.87 539.346C1176.87 539.347 1176.87 539.348 1176.87 539.349C1172.06 547.49 1163.13 552.4 1153.8 552.4C1151.83 552.4 1149.77 552.203 1147.82 551.715Z" fill="#25383F" stroke="black"/>
<path d="M1059.64 462.733L1064.95 404.274L1068.93 404.635L1063.62 463.095L1059.64 462.733Z" fill="#25383F" stroke="black"/>
<path d="M1025.85 493.473L1025.85 493.473L1025.85 493.483L1025.85 493.483L1025.85 493.483L1025.85 493.485L1025.84 493.495L1025.82 493.534C1025.81 493.569 1025.78 493.622 1025.75 493.691C1025.68 493.83 1025.57 494.036 1025.43 494.299C1025.15 494.826 1024.72 495.584 1024.17 496.504C1023.06 498.344 1021.41 500.829 1019.27 503.405C1015.03 508.496 1008.92 513.883 1001.24 515.443C1001.19 515.343 1001.11 515.216 1001.03 515.063C1000.79 514.612 1000.45 513.932 1000.07 513.027C999.319 511.217 998.425 508.506 997.869 504.923C996.758 497.763 996.997 487.103 1002.47 473.183L1002.47 473.181L1002.47 473.181L1002.47 473.181L1002.47 473.18L1002.47 473.172L1002.48 473.136C1002.5 473.105 1002.52 473.057 1002.54 472.993C1002.6 472.866 1002.68 472.678 1002.79 472.437C1003.01 471.956 1003.36 471.264 1003.83 470.433C1004.77 468.771 1006.21 466.554 1008.24 464.338C1012.25 459.97 1018.5 455.62 1027.62 455.502C1027.66 455.659 1027.72 455.866 1027.78 456.118C1027.95 456.756 1028.17 457.687 1028.41 458.856C1028.9 461.196 1029.46 464.484 1029.76 468.277C1030.37 475.878 1029.94 485.444 1025.85 493.473Z" fill="#25383F" stroke="black"/>
<path d="M873.556 383.261C873.554 383.275 873.551 383.288 873.549 383.301C867.67 387.21 861.559 385.793 856.82 383.307C854.43 382.054 852.414 380.54 850.993 379.337C850.284 378.736 849.725 378.214 849.344 377.844C849.154 377.659 849.008 377.512 848.911 377.411C848.862 377.361 848.826 377.323 848.802 377.297L848.775 377.269L848.769 377.262L848.767 377.261L848.767 377.261L848.767 377.261L848.637 377.12L848.447 377.102C844.4 376.721 842.074 374.4 840.743 372.146C840.075 371.015 839.662 369.905 839.415 369.076C839.292 368.663 839.212 368.321 839.162 368.085C839.137 367.967 839.12 367.876 839.109 367.815C839.104 367.784 839.1 367.762 839.098 367.747L839.096 367.731L839.095 367.729L839.095 367.728L839.095 367.728L839.095 367.728L839.053 367.439L838.78 367.333C834.873 365.829 832.808 363.515 831.856 360.918C830.894 358.299 831.042 355.326 831.7 352.488C832.356 349.654 833.509 347 834.503 345.049C835 344.075 835.455 343.279 835.785 342.728C835.95 342.453 836.083 342.239 836.175 342.095C836.202 342.053 836.225 342.017 836.245 341.987C844.637 337.811 852.841 341.017 859.494 347.325C866.181 353.666 871.184 363.053 873.013 370.814C873.851 374.462 873.974 377.641 873.888 379.906C873.845 381.038 873.75 381.941 873.666 382.558C873.624 382.866 873.585 383.103 873.556 383.261Z" fill="white" stroke="black"/>
<path d="M847.553 379.646L847.44 379.533L847.282 379.507C840.955 378.452 837.857 373.173 836.883 369.473L836.823 369.245L836.609 369.146C832.821 367.398 830.428 364.798 829.276 361.346C827.879 356.91 828.98 351.869 830.517 347.815C831.937 344.071 833.695 341.252 834.067 340.656C834.085 340.629 834.099 340.606 834.11 340.588L834.422 340.198L834.923 339.947L834.923 339.947L834.926 339.946C840.682 337.019 846.819 337.015 852.785 339.852L852.787 339.853C858.434 342.504 863.422 347.333 867.328 352.924C871.231 358.513 874.028 364.829 875.312 370.411C876.201 374.31 876.324 377.715 876.225 380.167C876.176 381.394 876.071 382.381 875.979 383.073C875.933 383.419 875.89 383.692 875.859 383.884C875.851 383.93 875.844 383.974 875.838 384.014C875.831 384.054 875.825 384.089 875.821 384.117C875.816 384.145 875.812 384.173 875.808 384.196L875.808 384.198C875.807 384.204 875.806 384.215 875.804 384.23L875.647 385.015L875.019 385.486C872.001 387.331 868.798 388.2 865.7 388.2C858.293 388.2 851.314 383.407 847.553 379.646ZM837.398 343.043L837.257 343.105L837.176 343.235C836.158 344.864 834.713 347.652 833.736 350.723C832.764 353.779 832.226 357.201 833.123 360.05L833.124 360.052C833.983 362.736 836.023 364.63 839.324 365.868L839.324 365.868L839.332 365.871L840.445 366.268L840.602 367.445C840.605 367.499 840.613 367.558 840.621 367.606C840.633 367.683 840.651 367.78 840.675 367.895C840.723 368.126 840.799 368.433 840.91 368.793C841.131 369.511 841.496 370.447 842.072 371.397C843.228 373.301 845.25 375.277 848.649 375.597L849.349 375.675L849.82 376.225L849.833 376.24L849.846 376.254C849.858 376.265 849.876 376.284 849.899 376.308C850.373 376.79 853.186 379.657 857.11 381.801C861.224 384.048 866.677 385.561 871.949 382.534L872.169 382.407L872.197 382.155C872.4 380.326 872.705 376.165 871.588 371.19L871.587 371.187C870.422 366.17 867.869 360.388 864.349 355.279C860.833 350.174 856.321 345.698 851.212 343.347C846.483 341.087 841.832 341.084 837.398 343.043Z" fill="#25383F" stroke="black"/>
<path d="M982 439.9L981.613 440.217L981.696 440.318L981.818 440.366L982 439.9ZM982 439.9C981.613 440.217 981.613 440.217 981.613 440.216L981.612 440.216L981.611 440.214L981.604 440.205L981.579 440.174C981.557 440.147 981.524 440.106 981.482 440.053C981.397 439.947 981.273 439.79 981.114 439.585C980.798 439.175 980.344 438.576 979.792 437.812C978.688 436.283 977.192 434.096 975.62 431.456C972.482 426.183 969.022 419.071 967.807 411.782C967.652 410.85 966.805 410.239 965.882 410.393L965.879 410.394C963.771 410.729 960.586 411.848 958.523 415.496C956.449 419.164 955.45 425.492 957.987 436.387L958.193 437.27L957.336 436.972L957.336 436.972L957.336 436.972L957.334 436.972L957.324 436.968L957.28 436.954C957.241 436.941 957.182 436.921 957.104 436.897C956.948 436.848 956.716 436.778 956.419 436.697C955.825 436.533 954.97 436.322 953.931 436.133C951.85 435.754 949.05 435.467 946.148 435.821C943.248 436.175 940.267 437.167 937.789 439.324C935.317 441.477 933.301 444.829 932.393 449.986L932.392 449.986L932.392 449.987L932.392 449.99L932.389 450.006L932.378 450.071C932.369 450.128 932.355 450.215 932.337 450.328C932.302 450.553 932.252 450.887 932.194 451.313C932.078 452.165 931.929 453.39 931.798 454.873C931.537 457.843 931.351 461.843 931.649 465.977C931.947 470.116 932.727 474.355 934.377 477.824C936.022 481.284 938.514 483.945 942.239 485.02L942.24 485.02C949.906 487.245 959.861 487.4 967.937 486.988C971.968 486.783 975.516 486.437 978.057 486.142C979.327 485.995 980.344 485.861 981.044 485.764C981.394 485.715 981.664 485.675 981.846 485.648C981.937 485.635 982.007 485.624 982.053 485.617L982.105 485.609L982.118 485.607L982.121 485.606L982.122 485.606C982.122 485.606 982.122 485.606 982.2 486.1L982.122 485.606L982.265 485.583L982.398 485.641L1020.56 502.095C1020.58 502.072 1020.6 502.048 1020.62 502.022C1020.81 501.79 1021.09 501.441 1021.43 500.982C1022.11 500.063 1023.05 498.701 1024.05 496.939C1026.07 493.415 1028.37 488.294 1029.51 481.913C1030.9 474.072 1030.52 468.182 1029.81 464.265C1029.45 462.306 1029.01 460.839 1028.66 459.866C1028.48 459.38 1028.33 459.018 1028.22 458.779C1028.19 458.697 1028.15 458.63 1028.13 458.577C1028.12 458.575 1028.12 458.573 1028.11 458.571C1028.01 458.527 1027.87 458.467 1027.69 458.39C1027.32 458.238 1026.8 458.026 1026.14 457.763C1024.83 457.236 1022.99 456.504 1020.8 455.637C1016.41 453.903 1010.62 451.628 1004.84 449.366C999.068 447.103 993.312 444.853 988.999 443.169C986.843 442.327 985.048 441.626 983.792 441.136L982.334 440.567L981.95 440.417L981.852 440.379L981.827 440.369L981.821 440.367L981.819 440.366C981.819 440.366 981.818 440.366 982 439.9Z" fill="white" stroke="black"/>
<path d="M1021.3 505.113L982.198 488.241L982.07 488.185L981.931 488.205C979.789 488.504 973.334 489.351 965.609 489.6C957.874 489.85 948.912 489.498 941.739 487.42C933.272 484.966 930.247 476.014 929.435 467.217C928.629 458.469 930.046 450.172 930.189 449.505L930.19 449.497L930.192 449.489C931.373 442.993 934.31 438.339 938.753 435.731L938.755 435.73C944 432.622 950.353 432.9 954.404 433.691L955.113 433.829L954.993 433.117C953.5 424.26 954.223 417.722 957.212 413.384L957.212 413.384L957.216 413.377C959.713 409.631 963.263 408.381 965.776 407.994L965.779 407.994C968.006 407.637 970.148 409.151 970.506 411.476L970.506 411.476L970.507 411.482C972.529 423.717 981.405 435.706 983.302 438.203L983.387 438.314L983.518 438.366C1006.27 447.266 1017.77 451.79 1023.6 454.115C1026.52 455.277 1028.02 455.888 1028.8 456.219C1029.19 456.386 1029.39 456.478 1029.5 456.532C1029.52 456.545 1029.54 456.554 1029.55 456.561C1029.55 456.562 1029.56 456.564 1029.56 456.565L1029.58 456.589L1029.62 456.616L1030.11 456.942L1030.35 457.424L1030.36 457.434C1030.59 457.903 1034.86 466.387 1032.01 482.513C1029.76 495.129 1023.29 502.974 1022.31 504.159C1022.28 504.2 1022.25 504.233 1022.23 504.258L1021.3 505.113ZM1019.8 500.159L1020.17 500.316L1020.4 499.998C1022.43 497.257 1026.47 490.786 1028.09 481.687L1028.09 481.686C1030.21 469.593 1028.1 462.3 1027.17 459.918L1027.09 459.72L1026.89 459.638C1022.09 457.636 997.777 448.132 981.382 441.734L981.37 441.73L981.358 441.726L980.898 441.572L980.59 441.188L980.59 441.188L980.584 441.18C980.347 440.895 977.464 437.342 974.331 432.033C971.195 426.72 967.828 419.68 966.593 412.416L966.508 411.915L966.008 412.009C964.326 412.324 962.081 413.175 960.482 415.625C959.114 417.678 958.377 420.479 958.25 423.907C958.123 427.339 958.606 431.435 959.713 436.113C959.713 436.114 959.713 436.114 959.713 436.115L960.512 439.631L957.065 438.428L956.985 438.4H956.965C956.952 438.396 956.936 438.392 956.918 438.386C956.843 438.365 956.734 438.332 956.595 438.293C956.315 438.214 955.915 438.106 955.416 437.988C954.421 437.753 953.032 437.48 951.435 437.327C948.255 437.023 944.182 437.191 940.751 439.167L940.75 439.167L940.746 439.169C937.179 441.267 935.023 445.024 934.108 450.213L934.108 450.214C933.402 454.248 932.746 461.701 933.654 468.566C934.109 471.997 934.958 475.314 936.411 477.989C937.867 480.67 939.948 482.733 942.86 483.58L942.86 483.58C950.345 485.755 960.089 485.9 967.962 485.512C971.906 485.318 975.395 484.988 977.916 484.708C979.177 484.568 980.196 484.439 980.91 484.346C981.201 484.308 981.441 484.276 981.625 484.252L981.741 484.236C981.797 484.229 981.845 484.222 981.886 484.217C981.917 484.213 981.944 484.209 981.966 484.207C981.998 484.203 982.015 484.201 982.021 484.2H982.041L982.082 484.193L982.537 484.117L1019.8 500.159Z" fill="#25383F" stroke="black"/>
<path d="M932.24 451.602L932.24 451.602L932.236 451.601C931.122 451.522 930.318 450.571 930.399 449.436C930.478 448.322 931.429 447.518 932.565 447.599C936.752 447.898 941.477 448.2 942.3 448.2H942.336L942.371 448.195C943.479 448.037 944.443 448.826 944.606 449.873C944.761 450.97 943.985 451.94 942.829 452.105L942.664 452.129L942.608 452.185C942.597 452.187 942.583 452.188 942.567 452.19C942.457 452.2 942.309 452.2 942.1 452.2C940.624 452.2 937.243 452.002 932.24 451.602Z" fill="#25383F" stroke="black"/>
<path d="M931.309 462.2L931.309 462.2H931.3C930.195 462.2 929.319 461.251 929.399 460.136L929.4 460.118V460.1C929.4 458.996 930.348 458.119 931.464 458.199L931.477 458.2L931.491 458.2L942.191 458.4L942.191 458.4H942.2C943.304 458.4 944.18 459.348 944.101 460.463C944.02 461.51 943.131 462.398 942.004 462.4L931.309 462.2Z" fill="#25383F" stroke="black"/>
<path d="M941.168 468.695L941.171 468.695C942.279 468.537 943.243 469.326 943.405 470.373C943.562 471.48 942.774 472.442 941.728 472.605L932.266 473.9H932.266H932.265H932.265H932.264H932.264H932.263H932.262H932.262H932.261H932.261H932.26H932.26H932.259H932.258H932.258H932.257H932.257H932.256H932.255H932.255H932.254H932.254H932.253H932.252H932.252H932.251H932.251H932.25H932.25H932.249H932.248H932.248H932.247H932.247H932.246H932.245H932.245H932.244H932.244H932.243H932.243H932.242H932.241H932.241H932.24H932.24H932.239H932.238H932.238H932.237H932.237H932.236H932.236H932.235H932.234H932.234H932.233H932.233H932.232H932.231H932.231H932.23H932.23H932.229H932.228H932.228H932.227H932.227H932.226H932.226H932.225H932.224H932.224H932.223H932.223H932.222H932.221H932.221H932.22H932.22H932.219H932.219H932.218H932.217H932.217H932.216H932.216H932.215H932.214H932.214H932.213H932.213H932.212H932.211H932.211H932.21H932.21H932.209H932.209H932.208H932.207H932.207H932.206H932.206H932.205H932.204H932.204H932.203H932.203H932.202H932.202H932.201H932.2H932.2H932.199H932.199H932.198H932.197H932.197H932.196H932.196H932.195H932.194H932.194H932.193H932.193H932.192H932.192H932.191H932.19H932.19H932.189H932.189H932.188H932.187H932.187H932.186H932.186H932.185H932.185H932.184H932.183H932.183H932.182H932.182H932.181H932.18H932.18H932.179H932.179H932.178H932.177H932.177H932.176H932.176H932.175H932.175H932.174H932.173H932.173H932.172H932.172H932.171H932.17H932.17H932.169H932.169H932.168H932.168H932.167H932.166H932.166H932.165H932.165H932.164H932.163H932.163H932.162H932.162H932.161H932.16H932.16H932.159H932.159H932.158H932.158H932.157H932.156H932.156H932.155H932.155H932.154H932.153H932.153H932.152H932.152H932.151H932.151H932.15H932.149H932.149H932.148H932.148H932.147H932.146H932.146H932.145H932.145H932.144H932.143H932.143H932.142H932.142H932.141H932.141H932.14H932.139H932.139H932.138H932.138H932.137H932.136H932.136H932.135H932.135H932.134H932.134H932.133H932.132H932.132H932.131H932.131H932.13H932.129H932.129H932.128H932.128H932.127H932.126H932.126H932.125H932.125H932.124H932.124H932.123H932.122H932.122H932.121H932.121H932.12H932.119H932.119H932.118H932.118H932.117H932.117H932.116H932.115H932.115H932.114H932.114H932.113H932.112H932.112H932.111H932.111H932.11H932.109H932.109H932.108H932.108H932.107H932.107H932.106H932.105H932.105H932.104H932.104H932.103H932.102H932.102H932.101H932.101H932.1H932.1H932.099H932.098H932.098H932.097H932.097H932.096H932.095H932.095H932.094H932.094H932.093H932.092H932.092H932.091H932.091H932.09H932.09H932.089H932.088H932.088H932.087H932.087H932.086H932.085H932.085H932.084H932.084H932.083H932.083H932.082H932.081H932.081H932.08H932.08H932.079H932.078H932.078H932.077H932.077H932.076H932.076H932.075H932.074H932.074H932.073H932.073H932.072H932.071H932.071H932.07H932.07H932.069H932.068H932.068H932.067H932.067H932.066H932.066H932.065H932.064H932.064H932.063H932.063H932.062H932.061H932.061H932.06H932.06H932.059H932.059H932.058H932.057H932.057H932.056H932.056H932.055H932.054H932.054H932.053H932.053H932.052H932.051H932.051H932.05H932.05H932.049H932.049H932.048H932.047H932.047H932.046H932.046H932.045H932.044H932.044H932.043H932.043H932.042H932.042H932.041H932.04H932.04H932.039H932.039H932.038H932.037H932.037H932.036H932.036H932.035H932.034H932.034H932.033H932.033H932.032H932.032H932.031H932.03H932.03H932.029H932.029H932.028H932.027H932.027H932.026H932.026H932.025H932.025H932.024H932.023H932.023H932.022H932.022H932.021H932.02H932.02H932.019H932.019H932.018H932.017H932.017H932.016H932.016H932.015H932.015H932.014H932.013H932.013H932.012H932.012H932.011H932.01H932.01H932.009H932.009H932.008H932.008H932.007H932.006H932.006H932.005H932.005H932.004H932.003H932.003H932.002H932.002H932.001H932H932C931.039 473.9 930.155 473.173 929.994 472.223C929.839 471.118 930.627 470.158 931.672 469.995L941.168 468.695Z" fill="#25383F" stroke="black"/>
<path d="M1323 700.5H0V705.5H1323V700.5Z" fill="#25383F"/>
<path d="M882.8 544.5H777.2V585.5H882.8V544.5Z" fill="#FF6F00"/>
<path d="M885 588H775V542H885V588ZM779.4 583H880.6V547H779.4V583Z" fill="#25383F"/>
</svg>
