<svg width="436" height="301" viewBox="0 0 436 301" fill="none" xmlns="http://www.w3.org/2000/svg">
<path d="M312.888 30.6199H174.932V299.043H312.888V30.6199Z" fill="white"/>
<path d="M313.72 299.875H174.1V29.7876H313.72V299.875ZM175.765 298.21H312.056V31.4517H175.765V298.21Z" fill="#25383F"/>
<path d="M284.365 83.9051H277.542V82.2409H282.701V81.9081H284.365V83.9051ZM271.551 83.9051H265.561V82.2409H271.551V83.9051ZM259.57 83.9051H253.579V82.2409H259.57V83.9051ZM247.588 83.9051H241.597V82.2409H247.588V83.9051ZM235.606 83.9051H229.616V82.2409H235.606V83.9051ZM223.625 83.9051H217.634V82.2409H223.625V83.9051ZM211.643 83.9051H205.652V82.2409H211.643V83.9051ZM205.12 78.4467H203.456V72.4559H205.12V78.4467ZM284.365 75.884H282.701V69.8932H284.365V75.884ZM205.12 66.465H203.456V60.4742H205.12V66.465ZM284.365 63.9023H282.701V57.9115H284.365V63.9023ZM281.603 54.7164H275.612V53.0522H281.603V54.7164ZM269.621 54.7164H263.63V53.0522H269.621V54.7164ZM257.639 54.7164H251.648V53.0522H257.639V54.7164ZM245.658 54.7164H239.667V53.0522H245.658V54.7164ZM233.676 54.7164H227.685V53.0522H233.676V54.7164ZM221.694 54.7164H215.703V53.0522H221.694V54.7164ZM209.713 54.7164H204.321V54.4834H203.489V53.0522H209.713V54.7164Z" fill="#25383F"/>
<path d="M284.365 129.169H277.542V127.505H282.701V127.172H284.365V129.169ZM271.551 129.169H265.561V127.505H271.551V129.169ZM259.57 129.169H253.579V127.505H259.57V129.169ZM247.588 129.169H241.597V127.505H247.588V129.169ZM235.606 129.169H229.616V127.505H235.606V129.169ZM223.625 129.169H217.634V127.505H223.625V129.169ZM211.643 129.169H205.652V127.505H211.643V129.169ZM205.12 123.711H203.456V117.72H205.12V123.711ZM284.365 121.148H282.701V115.157H284.365V121.148ZM205.12 111.729H203.456V105.738H205.12V111.729ZM284.365 109.166H282.701V103.176H284.365V109.166ZM281.603 99.9805H275.612V98.3164H281.603V99.9805ZM269.621 99.9805H263.63V98.3164H269.621V99.9805ZM257.639 99.9805H251.649V98.3164H257.639V99.9805ZM245.658 99.9805H239.667V98.3164H245.658V99.9805ZM233.676 99.9805H227.685V98.3164H233.676V99.9805ZM221.694 99.9805H215.704V98.3164H221.694V99.9805ZM209.713 99.9805H204.321V99.7475H203.489V98.3164H209.713V99.9805Z" fill="#25383F"/>
<path d="M284.365 174.433H277.542V172.769H282.701V172.436H284.365V174.433ZM271.551 174.433H265.561V172.769H271.551V174.433ZM259.57 174.433H253.579V172.769H259.57V174.433ZM247.588 174.433H241.597V172.769H247.588V174.433ZM235.606 174.433H229.616V172.769H235.606V174.433ZM223.625 174.433H217.634V172.769H223.625V174.433ZM211.643 174.433H205.652V172.769H211.643V174.433ZM205.12 168.975H203.456V162.984H205.12V168.975ZM284.365 166.412H282.701V160.421H284.365V166.412ZM205.12 156.993H203.456V151.003H205.12V156.993ZM284.365 154.431H282.701V148.44H284.365V154.431ZM281.603 145.245H275.612V143.581H281.603V145.245ZM269.621 145.245H263.63V143.581H269.621V145.245ZM257.639 145.245H251.649V143.581H257.639V145.245ZM245.658 145.245H239.667V143.581H245.658V145.245ZM233.676 145.245H227.685V143.581H233.676V145.245ZM221.694 145.245H215.704V143.581H221.694V145.245ZM209.713 145.245H204.321V145.012H203.489V143.581H209.713V145.245Z" fill="#25383F"/>
<path d="M284.365 219.698H277.542V218.033H282.701V217.701H284.365V219.698ZM271.551 219.698H265.561V218.033H271.551V219.698ZM259.57 219.698H253.579V218.033H259.57V219.698ZM247.588 219.698H241.597V218.033H247.588V219.698ZM235.606 219.698H229.616V218.033H235.606V219.698ZM223.625 219.698H217.634V218.033H223.625V219.698ZM211.643 219.698H205.652V218.033H211.643V219.698ZM205.12 214.239H203.456V208.248H205.12V214.239ZM284.365 211.676H282.701V205.686H284.365V211.676ZM205.12 202.258H203.456V196.267H205.12V202.258ZM284.365 199.695H282.701V193.704H284.365V199.695ZM281.603 190.509H275.612V188.845H281.603V190.509ZM269.621 190.509H263.63V188.845H269.621V190.509ZM257.639 190.509H251.649V188.845H257.639V190.509ZM245.658 190.509H239.667V188.845H245.658V190.509ZM233.676 190.509H227.685V188.845H233.676V190.509ZM221.694 190.509H215.704V188.845H221.694V190.509ZM209.713 190.509H204.321V190.276H203.489V188.845H209.713V190.509Z" fill="#25383F"/>
<path d="M243.927 276.178C233.543 276.178 225.122 267.757 225.122 257.373C225.122 246.989 233.543 238.569 243.927 238.569C254.311 238.569 262.732 246.989 262.732 257.373C262.732 267.757 254.278 276.178 243.927 276.178ZM243.927 240.233C234.475 240.233 226.787 247.921 226.787 257.373C226.787 266.825 234.475 274.514 243.927 274.514C253.379 274.514 261.068 266.825 261.068 257.373C261.068 247.921 253.379 240.233 243.927 240.233Z" fill="#25383F"/>
<path d="M255.077 256.541H232.777V258.205H255.077V256.541Z" fill="#25383F"/>
<path d="M244.759 246.224H243.095V268.523H244.759V246.224Z" fill="#25383F"/>
<path d="M125.641 0.832031H85.7023V14.4778H125.641V0.832031Z" fill="#FF6F00"/>
<path d="M126.473 15.3099H84.8702V0H126.473V15.3099ZM86.5343 13.6458H124.809V1.66412H86.5343V13.6458Z" fill="#25383F"/>
<path d="M350.265 88.1653H272.084V117.354H350.265V88.1653Z" fill="#FF6F00"/>
<path d="M351.097 118.186H271.252V87.3333H351.097V118.186ZM272.916 116.522H349.432V88.9974H272.916V116.522Z" fill="#25383F"/>
<path d="M396.594 85.6691L389.871 71.291L383.68 59.1763L371.232 64.3017C371.232 64.3017 370.467 85.4361 381.317 79.9112L384.146 88.1653L396.594 85.6691Z" fill="white"/>
<path d="M383.613 89.1304L380.851 81.0428C378.688 81.9081 376.791 81.8415 375.193 80.8431C369.968 77.5148 370.367 64.8009 370.4 64.2351L370.434 63.7026L384.079 58.0779L390.603 70.8916L397.758 86.2348L383.613 89.1304ZM381.816 78.7463L384.712 87.2333L395.395 85.0699L389.138 71.6571L383.314 60.2412L372.064 64.8675C371.998 68.6284 372.597 77.2153 376.092 79.4785C377.39 80.3106 378.954 80.2107 380.951 79.2122L381.816 78.7463Z" fill="#25383F"/>
<path d="M366.007 65.4999C365.208 62.9704 368.836 61.5726 368.836 61.5726C367.505 61.6391 366.939 61.0733 366.806 60.5075C366.14 57.3457 372.996 57.5454 372.996 57.5454C371.366 56.7133 373.129 55.8147 373.129 55.8147C375.326 54.9161 379.819 55.3155 382.981 55.7481C383.946 55.5152 396.061 52.7194 391.435 73.055C391.435 73.055 385.444 76.6495 383.114 70.2593C383.114 70.2593 384.013 66.4984 380.951 66.7979C380.352 66.8645 379.886 67.2639 379.686 67.8297C379.42 68.5952 379.353 69.1942 379.32 69.5936C379.32 69.8932 379.087 70.1594 378.788 70.2593C378.388 70.3924 377.989 70.1594 377.856 69.76L377.057 67.1973C371.765 68.5619 366.573 67.2972 366.007 65.4999Z" fill="#25383F"/>
<path d="M412.702 154.098C412.702 154.098 410.373 162.085 387.075 160.754C363.777 159.423 364.11 153.432 364.11 153.432L367.771 145.777H404.049L412.702 154.098Z" fill="#FF6F00"/>
<path d="M386.409 284.898C386.409 284.898 393.398 288.559 401.719 287.893C401.719 287.893 408.708 287.56 411.371 284.898L408.708 278.907H388.739L386.409 284.898Z" fill="#FF6F00"/>
<path d="M324.504 282.568C324.504 282.568 326.834 287.228 337.151 288.226C337.151 288.226 348.134 288.559 350.797 285.231V280.904L329.163 279.24L324.504 282.568Z" fill="#FF6F00"/>
<path d="M331.194 279.24C331.194 279.24 323.738 290.156 316.516 291.687C307.563 293.551 304.801 298.078 304.568 299.209H338.483L342.01 279.639L331.194 279.24Z" fill="white"/>
<path d="M339.181 300.041H303.569L303.769 299.043C304.135 297.146 307.729 292.653 316.35 290.855C323.173 289.424 330.461 278.874 330.528 278.774L330.794 278.408L343.009 278.84L339.181 300.041ZM305.899 298.377H337.784L341.012 280.438L331.626 280.105C330.195 282.102 323.472 291.088 316.682 292.519C310.059 293.884 306.997 296.78 305.899 298.377Z" fill="#25383F"/>
<path d="M396.094 279.24C396.094 279.24 392.966 290.157 385.744 291.688C376.791 293.551 374.028 298.078 373.795 299.209H409.374L406.911 279.639L396.094 279.24Z" fill="white"/>
<path d="M410.306 300.041H372.763L372.963 299.043C373.329 297.146 376.924 292.653 385.544 290.855C392.2 289.458 395.229 279.107 395.262 279.007L395.429 278.375L407.577 278.807L410.306 300.041ZM375.126 298.377H408.442L406.179 280.438L396.727 280.105C395.928 282.535 392.6 291.122 385.943 292.52C379.287 293.884 376.225 296.78 375.126 298.377Z" fill="#25383F"/>
<path d="M403.483 136.758C403.483 136.758 407.177 164.182 405.214 183.353L411.471 284.864C411.471 284.864 403.749 281.503 397.725 281.869C392.4 282.202 386.343 284.864 386.343 284.864L378.188 194.669L350.797 285.197C350.797 285.197 343.774 281.203 336.452 280.871C329.463 280.538 324.471 282.535 324.471 282.535L370.134 136.724H403.483V136.758Z" fill="#25383F"/>
<path d="M412.636 112.761C412.636 112.761 417.428 137.357 401.752 134.96L349.798 95.1879L336.485 88.1986L349.565 87.1335C351.629 86.9671 353.693 87.5995 355.257 88.9308L357.72 90.961L397.359 113.859L412.636 112.761Z" fill="white"/>
<path d="M403.816 135.992C403.117 135.992 402.385 135.926 401.619 135.826L401.42 135.793L401.253 135.659L349.366 95.9202L333.59 87.6329L349.532 86.3348C351.829 86.1351 354.059 86.8674 355.823 88.3318L358.219 90.3287L397.592 113.061L413.301 111.929L413.435 112.661C413.534 113.26 416.23 127.339 410.439 133.363C408.775 135.094 406.512 135.992 403.816 135.992ZM402.085 134.195C405.147 134.628 407.577 133.929 409.274 132.165C413.767 127.472 412.403 116.555 411.97 113.66L397.226 114.725L357.221 91.6268L354.758 89.5965C353.326 88.3983 351.496 87.8325 349.665 87.999L339.448 88.831L350.298 94.5223L350.364 94.5556L402.085 134.195Z" fill="#25383F"/>
<path d="M395.262 83.6389C395.262 83.6389 410.04 88.1986 413.368 114.492H406.711L412.037 153.432C412.037 153.432 398.391 148.773 385.078 148.773C375.426 148.773 364.01 153.499 364.01 153.499L368.769 129.802L365.741 107.536C365.741 107.536 371.399 97.6175 373.795 94.489C378.721 88.0988 383.147 85.4029 383.147 85.4029L395.262 83.6389Z" fill="#FDB092"/>
<path d="M362.879 154.863L367.904 129.801L364.875 107.402L365.009 107.169C365.242 106.77 370.7 97.1846 373.13 94.0228C378.089 87.566 382.515 84.8368 382.715 84.737L382.848 84.6372L395.262 82.8066L395.429 82.8732C395.595 82.9065 399.389 84.1379 403.616 88.6643C407.444 92.7914 412.403 100.613 414.133 114.425L414.267 115.357H407.61L413.002 154.697L411.737 154.264C411.604 154.231 398.058 149.638 385.045 149.638C375.659 149.638 364.41 154.231 364.31 154.297L362.879 154.863ZM385.078 147.94C396.028 147.94 407.311 151.102 411.038 152.234L405.746 113.659H412.403C410.639 100.946 406.079 93.7233 402.518 89.8625C399.057 86.1349 395.895 84.7703 395.163 84.504L383.48 86.2347C382.715 86.7339 378.754 89.4631 374.494 95.0213C372.331 97.817 367.505 106.204 366.639 107.735L369.635 129.835L365.142 152.167C368.537 150.902 377.29 147.94 385.078 147.94Z" fill="#25383F"/>
<path d="M379.486 194.07L377.989 193.338C389.471 170.373 394.53 156.627 394.597 156.494L396.161 157.06C396.128 157.193 391.035 171.005 379.486 194.07Z" fill="white"/>
<path d="M379.254 117.354L365.741 107.902L357.786 122.147L325.502 117.354H308.961C308.961 117.354 316.15 121.914 322.906 123.012L358.352 135.959C361.015 136.858 363.944 136.026 365.741 133.862L379.254 117.354Z" fill="white"/>
<path d="M360.515 137.124C359.717 137.124 358.885 136.99 358.086 136.724L322.673 123.811C315.85 122.679 308.795 118.219 308.495 118.053L306.099 116.522H325.635L357.354 121.248L365.508 106.67L380.485 117.187L366.406 134.394C364.909 136.158 362.745 137.124 360.515 137.124ZM312.123 118.186C314.785 119.584 319.012 121.547 323.039 122.18L323.206 122.213L358.652 135.16C360.948 135.925 363.544 135.193 365.108 133.296L378.055 117.487L366.04 109.066L358.252 123.045L325.469 118.153H312.123V118.186Z" fill="#25383F"/>
<path d="M387.806 106.252L378.812 116.911L380.084 117.984L389.078 107.326L387.806 106.252Z" fill="#25383F"/>
<path d="M210.145 149.738H131.965V178.926H210.145V149.738Z" fill="#FF6F00"/>
<path d="M210.977 179.759H131.133V148.906H210.977V179.759ZM132.797 178.094H209.313V150.57H132.797V178.094Z" fill="#25383F"/>
<path d="M70.226 216.669C70.226 216.669 71.8901 220.995 92.5252 218.999C92.5252 218.999 107.169 217.667 114.824 209.679L110.165 205.686L74.8855 210.345L70.226 216.669Z" fill="#FF6F00"/>
<path d="M165.014 285.164C165.014 285.164 159.09 287.893 151.102 287.228C151.102 287.228 144.779 287.893 141.45 285.231L142.116 279.24L163.417 280.238L165.014 285.164Z" fill="#25383F"/>
<path d="M60.9068 272.583C60.9068 272.583 57.5786 281.57 56.9129 288.892C56.9129 288.892 56.5801 298.876 59.5755 298.876L65.1004 296.447L66.232 276.91L60.9068 272.583Z" fill="#25383F"/>
<path d="M95.2211 168.742L93.6568 154.397C93.6568 154.397 105.306 156.694 98.4495 135.792L81.5087 139.42L83.0397 153.765L82.7402 168.742H95.2211Z" fill="white"/>
<path d="M96.153 169.574H81.8748L82.2076 153.798L80.6101 138.755L99.0153 134.794L99.2482 135.493C102.111 144.18 102.177 150.137 99.4812 153.199C97.9169 154.963 95.8867 155.263 94.622 155.263C94.622 155.263 94.622 155.263 94.5887 155.263L96.153 169.574ZM83.5722 167.91H94.3224L92.7249 153.366L93.8232 153.599C93.923 153.632 96.5524 154.098 98.2498 152.134C99.7808 150.403 100.912 146.343 97.8837 136.791L82.4073 140.119L83.8385 153.765L83.5722 167.91Z" fill="#25383F"/>
<path d="M69.3606 287.793C69.3606 287.793 57.3789 285.397 52.6195 280.138L27.9572 298.81H67.6299L69.3606 287.793Z" fill="white"/>
<path d="M68.3289 299.642H25.4944L52.7194 279.007L53.2186 279.573C57.7783 284.565 69.3939 286.961 69.527 286.961L70.3258 287.128L68.3289 299.642ZM30.4202 297.978H66.8977L68.3954 288.459C65.6995 287.86 56.9463 285.563 52.4864 281.27L30.4202 297.978Z" fill="#25383F"/>
<path d="M157.426 279.24C157.426 279.24 160.554 290.156 167.777 291.687C176.73 293.551 179.492 298.078 179.725 299.209H144.146L146.609 279.639L157.426 279.24Z" fill="white"/>
<path d="M180.724 300.041H143.214L145.91 278.84L158.058 278.407L158.225 279.04C158.258 279.14 161.32 289.524 167.943 290.888C176.563 292.686 180.158 297.179 180.524 299.076L180.724 300.041ZM145.078 298.377H178.394C177.296 296.779 174.234 293.884 167.61 292.486C160.921 291.088 157.626 282.501 156.827 280.072L147.375 280.404L145.078 298.377Z" fill="#25383F"/>
<path d="M61.8721 273.249C61.8721 273.249 66.0989 289.957 59.6422 298.91H124.243C128.137 298.91 131.865 297.312 134.428 294.417C138.089 290.256 140.219 282.635 131.765 269.122L111.097 241.464H143.747L142.416 283.733C142.416 283.733 147.774 281.57 153.232 281.403C160.122 281.203 163.45 283.2 164.349 283.733L168.01 229.649C168.376 224.024 164.482 218.999 158.924 218L103.508 208.015L77.2153 209.347C77.2153 209.347 76.716 248.454 105.106 274.614L61.8721 273.249Z" fill="#DEE6E9"/>
<path d="M124.21 299.742H58.0113L58.9765 298.411C65.167 289.857 61.1398 273.615 61.0732 273.449L60.807 272.384L102.943 273.715C89.2302 260.335 82.7401 243.96 79.6781 232.378C76.25 219.365 76.3499 209.413 76.3499 209.313V208.548L103.542 207.183L103.641 207.217L159.023 217.235C165.014 218.333 169.208 223.691 168.809 229.782L165.081 285.164L163.883 284.465C161.154 282.901 157.592 282.135 153.232 282.269C148.007 282.435 142.748 284.532 142.715 284.532L141.517 284.998L142.848 242.296H112.728L132.464 268.689C141.317 282.801 138.721 290.756 135.027 294.982C132.364 298.011 128.404 299.742 124.21 299.742ZM61.1731 298.078H124.243C127.971 298.078 131.466 296.547 133.829 293.884C138.588 288.492 137.656 280.072 131.133 269.621L109.466 240.666H144.612L143.281 282.568C145.178 281.902 149.139 280.738 153.199 280.604C157.293 280.471 160.787 281.104 163.616 282.435L167.178 229.649C167.544 224.424 163.916 219.797 158.757 218.866L103.475 208.847L78.0473 210.112C78.1139 212.675 78.5132 221.262 81.3423 231.979C84.4375 243.761 91.1939 260.602 105.705 273.981L107.336 275.512L62.9371 274.114C63.7026 277.809 65.7994 290.057 61.1731 298.078Z" fill="#25383F"/>
<path d="M114.259 168.908L133.296 177.329L173.202 179.06H184.684C184.684 179.06 179.126 183.919 173.202 185.184L133.995 188.778C133.13 188.845 132.231 188.811 131.366 188.612L113.027 184.551L114.259 168.908Z" fill="white"/>
<path d="M133.196 189.61C132.497 189.61 131.832 189.544 131.166 189.377L112.129 185.15L113.526 167.677L133.463 176.497L173.202 178.194H186.881L185.217 179.659C184.984 179.858 179.426 184.684 173.368 185.982H173.268L134.062 189.577C133.762 189.577 133.463 189.61 133.196 189.61ZM113.893 183.852L131.532 187.78C132.298 187.946 133.096 188.013 133.895 187.946L173.069 184.385C176.663 183.619 180.191 181.423 182.255 179.925H173.169L133.096 178.194L114.991 170.173L113.893 183.852Z" fill="#25383F"/>
<path d="M76.5496 174.4C76.7493 170.839 77.5481 160.688 86.3014 159.39C88.3649 159.09 90.495 159.356 92.4586 160.089L119.551 170.007L117.354 189.876L112.062 188.312L115.49 210.545C115.49 210.545 102.843 209.014 92.1924 209.713C81.8748 210.378 70.226 216.702 70.226 216.702C70.226 216.702 75.9505 185.55 76.5496 174.4Z" fill="#25383F"/>
<path d="M112.994 242.33C103.076 242.263 97.7172 237.204 94.9881 232.977C92.0259 228.418 91.3936 223.958 91.3936 223.758L93.0577 223.525C93.0577 223.558 93.6568 227.852 96.4525 232.079C100.147 237.67 105.705 240.566 113.06 240.632L112.994 242.33Z" fill="#25383F"/>
<path d="M89.7627 144.013C89.7627 144.013 88.498 140.818 86.3679 142.615C85.4693 143.381 85.5692 145.777 88.0653 147.075C88.0653 147.075 86.2348 150.436 82.2076 151.169C82.2076 151.169 76.0837 143.713 79.1456 136.225C79.1456 136.225 69.6269 137.656 68.9279 129.069C68.7282 126.473 70.7917 121.814 76.4165 121.913C79.2122 121.947 84.1047 123.811 83.5722 130.434C83.5722 130.434 95.8534 124.975 99.9472 137.589C99.9472 137.556 95.5539 144.346 89.7627 144.013Z" fill="#25383F"/>
<path d="M102.335 185.225L101.957 186.846L111.939 189.175L112.317 187.554L102.335 185.225Z" fill="white"/>
<path d="M436 298.543H0V300.208H436V298.543Z" fill="#25383F"/>
</svg>
