<svg width="426" height="311" viewBox="0 0 426 311" fill="none" xmlns="http://www.w3.org/2000/svg">
<path d="M364.941 70.0627H118.914V271.164H364.941V70.0627Z" fill="white"/>
<path d="M366.047 272.308H117.77V68.9185H366.085V272.308H366.047ZM120.058 270.019H363.797V71.2067H120.058V270.019Z" fill="#25383F"/>
<path d="M346.711 239.662H137.106V242.331H346.711V239.662Z" fill="#25383F"/>
<path d="M278.025 219.258C277.911 219.258 277.834 219.258 277.72 219.258C249.002 219.182 236.646 183.828 233.556 172.959C218.911 121.663 204.877 123.303 204.724 123.341L204.19 120.71C204.648 120.595 208.843 119.909 214.831 126.202C222.496 134.211 229.666 149.694 236.073 172.234C239.048 182.607 250.795 216.512 277.682 216.588C277.796 216.588 277.911 216.588 278.063 216.588C288.818 216.588 296.446 215.292 313.455 194.011C316.049 190.769 321.731 185.353 330.35 185.811L330.198 188.481C322.761 188.099 317.803 192.828 315.515 195.651C298.124 217.542 289.657 219.258 278.025 219.258Z" fill="#25383F"/>
<path d="M202.054 127.498C205.74 127.498 208.729 124.51 208.729 120.824C208.729 117.138 205.74 114.15 202.054 114.15C198.368 114.15 195.38 117.138 195.38 120.824C195.38 124.51 198.368 127.498 202.054 127.498Z" fill="#FF6F00"/>
<path d="M277.834 222.996C281.015 222.996 283.593 220.417 283.593 217.237C283.593 214.056 281.015 211.478 277.834 211.478C274.654 211.478 272.076 214.056 272.076 217.237C272.076 220.417 274.654 222.996 277.834 222.996Z" fill="#FF6F00"/>
<path d="M330.759 192.518C333.939 192.518 336.518 189.939 336.518 186.759C336.518 183.578 333.939 181 330.759 181C327.578 181 325 183.578 325 186.759C325 189.939 327.578 192.518 330.759 192.518Z" fill="#FF6F00"/>
<path d="M312.997 146.987C322.686 146.987 330.541 139.132 330.541 129.443C330.541 119.754 322.686 111.9 312.997 111.9C303.309 111.9 295.454 119.754 295.454 129.443C295.454 139.132 303.309 146.987 312.997 146.987Z" fill="#FDB092"/>
<path d="M312.997 156.75V154.08C326.575 154.08 337.635 143.02 337.635 129.443H340.304C340.342 144.508 328.062 156.75 312.997 156.75Z" fill="#25383F"/>
<path d="M288.36 129.443H285.691C285.691 114.379 297.933 102.136 312.998 102.136V104.806C299.42 104.768 288.36 115.828 288.36 129.443Z" fill="#25383F"/>
<path d="M278.673 195.231H276.385V197.519H278.673V195.231Z" fill="#FDB092"/>
<path d="M278.673 190.883H276.385V186.574H278.673V190.883ZM278.673 182.264H276.385V177.954H278.673V182.264ZM278.673 173.607H276.385V169.297H278.673V173.607ZM279.818 166.284L278.101 164.759L280.962 161.555L282.678 163.081L279.818 166.284ZM285.576 159.877L283.86 158.352L286.72 155.148L288.437 156.673L285.576 159.877ZM291.335 153.432L289.619 151.906L292.479 148.703L294.196 150.228L291.335 153.432Z" fill="#FDB092"/>
<path d="M296.833 143.727L295.309 145.434L297.015 146.958L298.539 145.251L296.833 143.727Z" fill="#FDB092"/>
<path d="M109.608 266.282C109.608 266.282 96.26 280.05 58.2365 276.808C58.2365 276.808 30.7391 273.566 23.0353 263.46L27.116 249.921L105.985 251.332L109.608 266.282Z" fill="#F5B3A5"/>
<path d="M28.0695 248.281C28.0695 248.281 30.8917 267.312 37.7946 277.647L43.2483 309.95H79.4793L71.3941 248.243H28.0695V248.281Z" fill="#25383F"/>
<path d="M32.5316 249.654C32.5316 249.654 35.1631 267.121 52.3633 277.647L66.3218 309.95H115.291L98.5101 251.027L32.5316 249.654Z" fill="#25383F"/>
<path d="M65.4446 310.369L51.4098 278.181C49.0834 276.923 35.2012 268.647 31.3875 249.692L33.2562 249.311C37.1844 268.685 52.4396 276.579 52.5921 276.656L52.8972 276.808L67.1989 309.607L65.4446 310.369Z" fill="white"/>
<path d="M55.2236 163.844L57.2068 136.346L60.2197 112.663L83.7889 113.692C83.7889 113.692 97.6329 148.093 76.4283 145.461L76.6953 160.754L55.2236 163.844Z" fill="white"/>
<path d="M54.1939 164.95L56.2534 136.232L59.3807 111.671L84.4754 112.777L84.7042 113.349C85.0474 114.226 93.1708 134.706 86.7255 143.059C84.7423 145.652 81.615 146.834 77.4199 146.529L77.6868 161.632L54.1939 164.95ZM58.1221 136.461L56.2534 162.738L75.7037 159.992L75.4367 144.432L76.5427 144.584C80.5472 145.08 83.4457 144.203 85.2 141.953C90.4249 135.164 84.3991 118.002 83.1406 114.684L61.0587 113.692L58.1221 136.461Z" fill="#25383F"/>
<path d="M93.0946 112.586C92.9039 107.934 86.1153 107.781 86.1153 107.781C88.3655 107.133 88.9757 105.836 88.8231 104.844C88.0222 99.2 76.886 103.624 76.886 103.624C79.0598 101.259 75.6274 100.84 75.6274 100.84C71.4704 100.649 64.2623 103.967 59.3044 106.599C57.5882 106.751 35.9259 109.383 55.6432 140.16C55.6432 140.16 67.6185 142.525 67.7329 130.626C67.7329 130.626 63.9954 124.943 69.2584 123.608C70.25 123.341 71.3178 123.723 71.9662 124.562C72.8434 125.668 73.3391 126.621 73.6061 127.269C73.8349 127.765 74.3307 128.108 74.8647 128.07C75.5893 128.032 76.1613 127.422 76.1232 126.697L75.9325 122.006C85.4288 121.091 93.2471 115.904 93.0946 112.586Z" fill="#25383F"/>
<path d="M163.802 134.783C163.802 134.783 167.425 135.584 173.909 146.11C173.909 146.11 177.15 154.614 174.71 159.458L168.646 163.081L156.098 143.669L163.802 134.783Z" fill="#25383F"/>
<path d="M157.128 141.991L195.685 114.875C196.639 114.188 197.974 114.989 197.783 116.171C197.44 118.574 195.876 122.464 190.27 127.269C190.27 127.269 195.418 131.96 192.673 137.757C192.673 137.757 188.172 141.304 182.337 142.22L165.404 157.894L157.128 141.991Z" fill="white"/>
<path d="M165.442 158.81C165.404 158.81 165.328 158.81 165.29 158.81C164.984 158.771 164.756 158.581 164.603 158.314L156.289 142.448C156.06 142.029 156.213 141.495 156.594 141.228L195.151 114.112C195.914 113.578 196.868 113.54 197.669 114.036C198.469 114.532 198.889 115.409 198.736 116.324C198.393 118.803 196.868 122.655 191.643 127.346C193.054 129.024 195.876 133.257 193.55 138.177C193.473 138.329 193.397 138.444 193.283 138.52C193.092 138.673 188.668 142.105 182.795 143.135L166.052 158.619C165.9 158.733 165.671 158.81 165.442 158.81ZM158.348 142.258L165.709 156.292L181.727 141.457C181.879 141.342 182.032 141.228 182.223 141.228C187.104 140.465 191.071 137.719 191.91 137.109C194.084 132.113 189.698 127.994 189.621 127.956C189.431 127.765 189.316 127.498 189.316 127.231C189.316 126.964 189.431 126.697 189.66 126.507C194.999 121.892 196.524 118.231 196.83 115.981C196.868 115.752 196.715 115.637 196.639 115.599C196.563 115.561 196.41 115.485 196.219 115.599L158.348 142.258Z" fill="#25383F"/>
<path d="M174.519 159.687C174.519 159.687 167.425 157.055 164.603 150.572C160.98 142.296 163.802 134.783 163.802 134.783L121.317 166.361L77.6106 149.771H56.9398C54.8423 149.771 52.821 150.457 51.181 151.754L41.0364 159.572C38.8244 161.289 36.9556 163.386 35.4682 165.751C30.8154 173.34 20.0605 191.15 14.4543 203.583C12.4711 207.969 6.48345 226.962 27.8025 227.992C26.01 240.119 24.1794 252.438 22.5776 263.498C22.5776 263.498 33.4469 252.133 59.3807 252.972C84.0559 253.773 109.57 266.32 109.57 266.32L98.4339 199.77L120.401 200.761C126.16 201.028 131.766 198.969 136 195.079L174.519 159.687Z" fill="#FF6F00"/>
<path d="M35.4975 189.65L27.0005 227.692L28.8617 228.108L37.3586 190.066L35.4975 189.65Z" fill="#25383F"/>
<path d="M84.95 197.01L84.7475 198.906L104.428 201.008L104.631 199.112L84.95 197.01Z" fill="#25383F"/>
<path d="M426 309.034H0V310.941H426V309.034Z" fill="#25383F"/>
<path d="M95.771 17.832H55.8321V31.4778H95.771V17.832Z" fill="#FF6F00"/>
<path d="M96.6031 32.3099H55V17H96.6031V32.3099ZM56.6641 30.6458H94.9389V18.6641H56.6641V30.6458Z" fill="#25383F"/>
<rect x="214" y="8" width="112" height="87" fill="white" stroke="#25383F" stroke-width="2"/>
<rect x="222" y="18" width="20" height="20" fill="#DEE6E9"/>
<rect x="222" y="43" width="20" height="20" fill="#DEE6E9"/>
<rect x="222" y="68" width="20" height="20" fill="#FF6F00"/>
<rect x="247" y="18" width="20" height="20" fill="#DEE6E9"/>
<rect x="247" y="43" width="20" height="20" fill="#FF6F00"/>
<rect x="247" y="68" width="20" height="20" fill="#FDB092"/>
<rect x="272" y="18" width="20" height="20" fill="#DEE6E9"/>
<rect x="272" y="43" width="20" height="20" fill="#FF6F00"/>
<rect x="272" y="68" width="20" height="20" fill="#DEE6E9"/>
<rect x="297" y="18" width="20" height="20" fill="#DEE6E9"/>
<rect x="297" y="43" width="20" height="20" fill="#FF6F00"/>
<rect x="297" y="68" width="20" height="20" fill="#DEE6E9"/>
<rect x="214" y="1" width="112" height="8" fill="#FF6F00" stroke="#25383F" stroke-width="2"/>
</svg>
